<?xml version="1.0" encoding="UTF-8"?>
<svg width="44px" height="44px" viewBox="0 0 44 44" version="1.1" xmlns="http://www.w3.org/2000/svg" xmlns:xlink="http://www.w3.org/1999/xlink">
    <!-- Generator: Sketch 52.3 (67297) - http://www.bohemiancoding.com/sketch -->
    <title>Logo/NoText/White/44</title>
    <desc>Created with Sketch.</desc>
    <defs>
        <linearGradient x1="50.5790311%" y1="55.4592603%" x2="49.4367441%" y2="44.6899381%" id="linearGradient-1">
            <stop stop-color="#FFFFFF" stop-opacity="0" offset="0%"></stop>
            <stop stop-color="#3F3B3D" stop-opacity="0.6" offset="100%"></stop>
        </linearGradient>
        <path d="M10.6456004,17.0435539 L5.12836039,14.2995927 C4.99058213,14.2310588 4.83172745,14.2182235 4.68476082,14.2636443 L1.72070484,15.1800663 C1.40470054,15.2777757 1.22770592,15.6131513 1.32541529,15.9291557 L3.01744973,21.4017326 C3.1151591,21.7176896 3.45053477,21.8946842 3.76653907,21.7969748 L10.992059,19.5629684 C11.3080633,19.465259 11.4850579,19.1298833 11.3873485,18.813879 L10.9510902,17.4028952 C10.9026855,17.2463612 10.7922829,17.1165399 10.6456004,17.0435539" id="path-2"></path>
        <filter x="-49.2%" y="-78.7%" width="237.9%" height="283.8%" filterUnits="objectBoundingBox" id="filter-3">
            <feOffset dx="2" dy="1" in="SourceAlpha" result="shadowOffsetOuter1"></feOffset>
            <feGaussianBlur stdDeviation="2" in="shadowOffsetOuter1" result="shadowBlurOuter1"></feGaussianBlur>
            <feColorMatrix values="0 0 0 0 0   0 0 0 0 0   0 0 0 0 0  0 0 0 0.5 0" type="matrix" in="shadowBlurOuter1"></feColorMatrix>
        </filter>
        <linearGradient x1="37.169655%" y1="97.2099213%" x2="62.4962927%" y2="3.03463995%" id="linearGradient-4">
            <stop stop-color="#2D3191" offset="0%"></stop>
            <stop stop-color="#1AFFFF" offset="100%"></stop>
        </linearGradient>
    </defs>
    <g id="Logo/NoText/White/44" stroke="none" stroke-width="1" fill="none" fill-rule="evenodd">
        <path d="M42.6332452,34.0575582 L10.5671914,43.9718144 C10.3813873,44.0292654 10.1842161,43.9252568 10.1267651,43.7394527 L3.48068116,22.2437714 L36.2195229,12.121498 L42.8656069,33.617132 C42.9230579,33.8029361 42.8190019,34.0001072 42.6332452,34.0575582" id="Fill-1" fill="#FFFFFF"></path>
        <polygon id="Fill-3" fill="url(#linearGradient-1)" points="36.6431733 13.4917546 3.9043789 23.6140753 3.52078794 22.373408 36.2595823 12.2510872"></polygon>
        <path d="M2.21572616,18.6102239 L1.04439785,16.3122777 C0.942473197,16.1123595 1.0219479,15.8676835 1.22191346,15.7657115 L32.0643978,0.0444025834 C32.2643634,-0.0575220667 32.5090394,0.0219526372 32.6109167,0.221870829 L33.7822924,2.51981701 C33.8841696,2.71978256 33.8046949,2.96445856 33.6047767,3.06638321 L2.76229236,18.7877395 C2.5623268,18.8896168 2.31760344,18.8101421 2.21572616,18.6102239 Z M35.4251311,8.95876469 C35.6394476,8.8925042 35.8668835,9.01252142 35.9331914,9.22683789 L36.695116,11.6912642 C36.7614239,11.905628 36.6414067,12.1330639 36.4270428,12.1993244 L3.35325167,22.4251802 C3.13898256,22.4914407 2.91154661,22.3714235 2.84523875,22.157107 L2.08326674,19.6926334 C2.01700624,19.4783169 2.13702347,19.2508809 2.35133994,19.1846205 L35.4251311,8.95876469 Z" id="Fill-8" fill="#FFFFFF"></path>
        <path d="M29.1472073,5.33766889 L25.4700103,3.40574209 L28.681963,1.76855371 L32.3590652,3.70048052 L29.1472073,5.33766889 Z M25.0853916,12.1564469 L28.5296586,11.0915427 L27.2395918,15.0399389 L23.7953722,16.1048431 L25.0853916,12.1564469 Z M19.5252409,13.8755681 L22.9694605,12.8106639 L21.6794411,16.7590127 L18.2352215,17.8239169 L19.5252409,13.8755681 Z M14.1482467,15.5380293 L17.5925137,14.4731251 L16.3024943,18.4215212 L12.8582273,19.4864254 L14.1482467,15.5380293 Z M30.645566,10.4373494 L34.0898329,9.37244521 L32.7997662,13.320794 L29.355594,14.3856982 L30.645566,10.4373494 Z M23.9620986,7.9806859 L20.284949,6.0487591 L23.4968543,4.41157072 L27.1740039,6.34345016 L23.9620986,7.9806859 Z M18.7769851,10.6236792 L15.0998355,8.69175242 L18.3117408,7.05456405 L21.9888904,8.98649085 L18.7769851,10.6236792 Z M13.7627091,13.1796009 L10.0855595,11.2476741 L13.2974648,9.61048568 L16.9746144,11.5423651 L13.7627091,13.1796009 Z" id="Fill-25" fill="#29ABE2"></path>
        <g id="Fill-27">
            <use fill="black" fill-opacity="1" filter="url(#filter-3)" xlink:href="#path-2"></use>
            <use fill="#FFFFFF" fill-rule="evenodd" xlink:href="#path-2"></use>
        </g>
        <path d="M9.30723315,18.2134424 C9.57038062,18.1267686 9.85223638,18.2693778 9.93976276,18.5308202 C10.0260577,18.7927363 9.8834958,19.074592 9.62195867,19.1621184 C9.36013735,19.2484133 9.07705016,19.106183 8.98952379,18.8446932 C8.90280258,18.5815931 9.0454592,18.2997374 9.30723315,18.2134424 Z M3.02299591,16.0023595 C3.28614338,15.9156857 3.56799914,16.0582949 3.65552551,16.3197374 C3.74182045,16.5816534 3.59925856,16.8635091 3.33772142,16.9510355 C3.07590011,17.0373305 2.79281292,16.8951001 2.70528654,16.6336103 C2.61856534,16.3705102 2.76122196,16.0886545 3.02299591,16.0023595 Z M4.19529516,19.7939707 C4.45844263,19.7072969 4.74029839,19.8499061 4.82782476,20.1113485 C4.9141197,20.3732646 4.7715578,20.6551203 4.51002067,20.7426467 C4.24824672,20.8289417 3.96515953,20.6867113 3.87758579,20.4252215 C3.79086459,20.1621214 3.93352121,19.8802657 4.19529516,19.7939707 Z" id="Fill-33" fill="#29ABE2"></path>
        <polygon id="Fill-36" fill="url(#linearGradient-4)" points="21.2096405 23.0799656 20.7649042 28.856422 18.1193154 25.560732 16.4750226 26.8807793 22.8961335 34.8794962 24.5403315 33.559591 22.3927147 30.8842583 22.5423811 29.4217912 27.8096878 30.9349365 29.9588676 29.2099376 22.7278062 27.2709064 23.3692874 21.3462519"></polygon>
    </g>
</svg>