<?xml version="1.0" encoding="UTF-8"?>
<svg width="237px" height="44px" viewBox="0 0 237 44" version="1.1" xmlns="http://www.w3.org/2000/svg" xmlns:xlink="http://www.w3.org/1999/xlink">
    <!-- Generator: Sketch 52.3 (67297) - http://www.bohemiancoding.com/sketch -->
    <title>Logo/Text/Colors/44</title>
    <desc>Created with Sketch.</desc>
    <defs>
        <linearGradient x1="24.3328356%" y1="104.890076%" x2="75.7559439%" y2="-5.2369727%" id="linearGradient-1">
            <stop stop-color="#1AFFFF" offset="0%"></stop>
            <stop stop-color="#2D3191" offset="100%"></stop>
        </linearGradient>
        <linearGradient x1="50.5790311%" y1="55.4592603%" x2="49.4209237%" y2="44.5407853%" id="linearGradient-2">
            <stop stop-color="#2A51A2" stop-opacity="0" offset="0%"></stop>
            <stop stop-color="#3F3B3D" offset="100%"></stop>
        </linearGradient>
        <linearGradient x1="-5.09142929e-05%" y1="50.0000754%" x2="100.000075%" y2="50.0000754%" id="linearGradient-3">
            <stop stop-color="#2D3191" offset="0%"></stop>
            <stop stop-color="#1AFFFF" offset="100%"></stop>
        </linearGradient>
    </defs>
    <g id="Logo/Text/Colors/44" stroke="none" stroke-width="1" fill="none" fill-rule="evenodd">
        <path d="M2.47769697,22.2232307 L9.11590324,43.6990577 C9.17323845,43.8846429 9.37022179,43.9886028 9.55575702,43.9312048 L41.5835743,34.0261059 C41.7691095,33.9687079 41.8730414,33.7717189 41.8156589,33.5860864 L35.1774999,12.1103067 L2.47769697,22.2232307 Z" id="Fill-1" fill="url(#linearGradient-1)"></path>
        <polygon id="Fill-4" fill="url(#linearGradient-2)" points="35.6006546 13.479293 2.90089894 23.5922643 2.51776538 22.3527429 35.217521 12.2397715"></polygon>
        <path d="M31.0273674,0.0443852307 C31.0864056,0.0142903408 31.149323,0 31.2113415,0 C31.359079,0 31.5015182,0.0810101439 31.5732345,0.221689558 L32.7431661,2.51751325 C32.8449219,2.71724679 32.765542,2.96174411 32.5658622,3.06357462 L1.76015533,18.7703626 C1.56047553,18.8721458 1.31604398,18.7927445 1.21424087,18.593011 L0.044356596,16.2972346 C-0.057446516,16.0974538 0.0219334199,15.8530038 0.221613223,15.7511733 L31.0273674,0.0443852307 Z M34.384079,8.95048524 C34.4240055,8.93813498 34.4643578,8.93226742 34.5040477,8.93226742 C34.677236,8.93231474 34.8376516,9.04412956 34.8914862,9.21831083 L35.6525969,11.6805082 C35.7187311,11.8946267 35.5989043,12.1218526 35.384796,12.1880519 L2.35044308,22.4045099 C2.13638216,22.4706618 1.90926472,22.3508028 1.84303593,22.136637 L1.08197252,19.6744396 C1.01579103,19.4603211 1.13571245,19.2330952 1.34972605,19.1668959 L34.384079,8.95048524 Z" id="Fill-10" fill="url(#linearGradient-3)"></path>
        <path d="M28.113627,5.33273878 L24.4408148,3.40259639 L27.6489374,1.7669202 L31.321655,3.69706259 L28.113627,5.33273878 Z M24.0566547,12.1452187 L27.4968146,11.0812981 L26.2082862,15.0260473 L22.7681736,16.0899679 L24.0566547,12.1452187 Z M18.5031341,13.862752 L21.9432467,12.7988314 L20.6547656,16.7435333 L17.214653,17.8074539 L18.5031341,13.862752 Z M13.1325516,15.5236777 L16.5727115,14.459757 L15.2842304,18.4045063 L11.8440705,19.4684269 L13.1325516,15.5236777 Z M29.610199,10.427709 L33.0503589,9.36378839 L31.7618305,13.3084903 L28.3217652,14.3724109 L29.610199,10.427709 Z M22.9347012,7.97331458 L19.2619363,6.04317219 L22.4700116,4.40749599 L26.1427765,6.33759106 L22.9347012,7.97331458 Z M17.7557706,10.6138667 L14.0830057,8.68372433 L17.291081,7.04804813 L20.9638459,8.97819052 L17.7557706,10.6138667 Z M12.7474738,13.1674276 L9.07470893,11.2372852 L12.2827842,9.601609 L15.9555491,11.5317041 L12.7474738,13.1674276 Z" id="Fill-27" fill="#FFFFFF"></path>
        <path d="M9.63408202,17.0278117 L4.12342091,14.2863849 C3.98580694,14.2179143 3.82714168,14.2050909 3.6803503,14.2504698 L0.71982876,15.1660453 C0.404201267,15.2636644 0.227417703,15.5987303 0.325010556,15.9144428 L2.01502737,21.381965 C2.11262022,21.6976301 2.44759598,21.8744613 2.76322347,21.7768421 L9.98012745,19.5448991 C10.2957549,19.44728 10.4725385,19.1122141 10.3749457,18.7965017 L9.93920752,17.3868211 C9.89086051,17.2304317 9.78058957,17.1007303 9.63408202,17.0278117" id="Fill-29" fill="#29ABE2"></path>
        <path d="M8.29731066,18.1966197 C8.56014434,18.1100259 8.84166401,18.2525034 8.92908601,18.5137043 C9.01527805,18.7753785 8.87288615,19.0569739 8.61166088,19.1444194 C8.35015177,19.2306346 8.06740214,19.0885357 7.97998014,18.8272874 C7.89336234,18.5644303 8.03584885,18.2828349 8.29731066,18.1966197 Z M2.02056693,15.987579 C2.28340062,15.9009852 2.56492028,16.0434628 2.65234229,16.3046637 C2.73853433,16.5663378 2.59614243,16.8479332 2.33491716,16.9353788 C2.07340805,17.021594 1.79065842,16.879495 1.70323641,16.6182468 C1.61661862,16.3553897 1.75910513,16.0737943 2.02056693,15.987579 Z M3.19146829,19.7756881 C3.45430198,19.6890943 3.73582164,19.8315719 3.82324365,20.0927728 C3.90943569,20.3544469 3.76704379,20.6360423 3.50581852,20.7234879 C3.24435671,20.8097031 2.96160708,20.6676041 2.87413778,20.4063559 C2.78751998,20.1434988 2.93000649,19.8619033 3.19146829,19.7756881 Z" id="Fill-35" fill="#FFFFFF"></path>
        <polygon id="Fill-37" fill="#FFFFFF" points="15.6314491 26.1209638 17.4089352 24.9909385 19.6729191 28.5546277 20.7495627 22.8674033 23.0841748 21.3833846 21.7959303 27.1960517 28.7612594 29.9168001 26.4380481 31.3933898 21.3753301 29.3114953 21.0658998 30.747296 22.9038433 33.6400963 21.1264991 34.7699323"></polygon>
        <path d="M231.542712,22.7504754 C231.542712,21.327872 231.352678,20.2020315 230.9737,19.3718159 C230.594152,18.5421694 230.001195,18.1270616 229.195445,18.1270616 C228.792001,18.1270616 228.40079,18.3287599 228.021764,18.7316349 C227.642217,19.1350789 227.333837,19.6919065 227.0971,20.4032082 C226.859794,21.1145099 226.74145,21.8969323 226.74145,22.7504754 L231.542712,22.7504754 Z M223.64732,32.5841909 C222.390333,30.6992082 221.762385,28.1919194 221.762385,25.0622297 C221.762385,21.8852211 222.402566,19.3601522 223.682881,17.4868806 C224.963195,15.614178 226.824234,14.6772341 229.266566,14.6772341 C231.589937,14.6772341 233.368191,15.614178 234.601281,17.4868806 C235.83385,19.3601522 236.450704,21.8852211 236.450704,25.0622297 C236.450704,25.2522642 236.415096,25.3884366 236.343975,25.4712211 C236.272855,25.5545746 236.237294,25.6079151 236.237294,25.6312427 L226.74145,25.6312427 C226.74145,27.1728073 226.942626,28.5775832 227.34607,29.8457125 C227.748945,31.1143634 228.365182,31.7483806 229.195445,31.7483806 C230.120109,31.7483806 230.807514,31.214928 231.258182,30.1480228 C231.708329,29.0810703 231.945587,28.5241953 231.969484,28.4764496 L235.739402,29.899053 C235.241462,31.6061392 234.446807,32.9520746 233.356527,33.9356263 C232.265678,34.9197944 230.843075,35.4115703 229.088717,35.4115703 C226.717553,35.4115703 224.903786,34.4691263 223.64732,32.5841909 Z M58.6654703,35.4115797 L54.0420091,22.9994547 L52.0148323,26.520403 L52.0148323,34.9492478 L46.7867978,34.9492478 L46.7867978,8.70234698 L52.0148323,8.27557543 L52.0148323,19.9408384 L58.3453797,8.27557543 L63.8935047,8.27557543 L58.167578,19.3007047 L63.9646254,34.2023858 L58.6654703,35.4115797 Z M66.5248849,12.3655366 L66.5248849,7.20862284 L71.5039496,6.85297198 L71.5039496,12.1521746 L66.5248849,12.3655366 Z M66.4893246,35.1626573 L66.4893246,15.3529849 L71.4683892,14.9262134 L71.4683892,34.7358384 L66.4893246,35.1626573 Z M75.8423448,15.3529991 L80.8214095,14.9262276 L80.8214095,17.4868569 C81.840569,16.5860897 82.8425172,15.8925681 83.8266379,15.4063397 C84.8102371,14.9206328 85.7171681,14.6772578 86.5473362,14.6772578 C87.8038017,14.6772578 88.8290776,15.1340422 89.6237328,16.0464733 C90.417819,16.9595207 90.8151466,18.1864948 90.8151466,19.7274905 L90.8151466,34.7358526 L85.8360819,35.1626716 L85.8360819,21.6124259 C85.8360819,19.8341716 85.2314612,18.9450207 84.0222672,18.9450207 C83.6188233,18.9450207 83.1742716,19.0639819 82.6885647,19.3006716 C82.2023362,19.5379776 81.5799353,19.8819647 80.8214095,20.3320638 L80.8214095,34.7358526 L75.8423448,35.1626716 L75.8423448,15.3529991 Z M103.582444,29.7567927 C103.890301,28.453103 104.044775,26.8526978 104.044775,24.9554823 C104.044775,23.0588832 103.890301,21.458478 103.582444,20.1542668 C103.274017,18.8505772 102.586612,18.1981634 101.519706,18.1981634 C100.452754,18.1981634 99.7770125,18.8150168 99.4924823,20.0475384 C99.2079522,21.2806289 99.0657108,22.7860168 99.0657108,24.5642711 C99.0657108,26.7460168 99.2079522,28.482547 99.4924823,29.7745728 C99.7770125,31.0671203 100.452754,31.7128487 101.519706,31.7128487 C102.586612,31.7128487 103.274017,31.0610039 103.582444,29.7567927 M95.9893142,32.5663918 C94.6967668,30.6697927 94.0510858,28.1446763 94.0510858,24.9910427 C94.0510858,21.861353 94.6912194,19.3601806 95.9715341,17.4868616 C97.2518961,15.6141591 99.1012711,14.6772625 101.519706,14.6772625 C103.914198,14.6772625 105.769689,15.6141591 107.085564,17.4868616 C108.401487,19.3601806 109.059448,21.861353 109.059448,24.9910427 C109.059448,28.1207797 108.401487,30.6403487 107.085564,32.5486116 C105.769689,34.4574909 103.914198,35.4115987 101.519706,35.4115987 C99.1245987,35.4115987 97.2813401,34.4636073 95.9893142,32.5663918 Z M123.107183,35.4115797 L119.052782,25.4534504 L117.416769,27.6228685 L117.416769,34.9492478 L112.437752,34.9492478 L112.437752,8.91575647 L117.416769,8.27557543 L117.416769,21.5056832 L122.502609,14.9262134 L127.908446,14.9262134 L122.2892,22.1458642 L127.517234,33.9178556 L123.107183,35.4115797 Z M136.817455,31.5705978 C137.089752,31.3810849 137.427623,31.0726582 137.831067,30.6458866 L137.831067,25.0977616 C136.6452,25.0977616 135.697162,25.4178522 134.98586,26.0579858 C134.274558,26.6981668 133.918907,27.6939987 133.918907,29.0454815 C133.918907,29.9468177 134.078976,30.6403392 134.399019,31.1260461 C134.71911,31.6122746 135.187037,31.855128 135.803843,31.855128 C136.206718,31.855128 136.544588,31.7606323 136.817455,31.5705978 M131.180429,34.6113866 C130.492502,34.0779341 129.959002,33.3549685 129.579976,32.4419211 C129.200476,31.5294901 129.010963,30.5036453 129.010963,29.365572 C129.010963,26.7815677 129.893998,24.9615892 131.660541,23.9063478 C133.426562,22.851628 135.483752,22.2525547 137.831067,22.1103134 C137.831067,20.8299987 137.747713,19.8819599 137.582097,19.2651065 C137.415959,18.6488694 137.013084,18.3404427 136.372903,18.3404427 C135.82717,18.3404427 135.412631,18.5538047 135.128101,18.9805763 C134.843619,19.4073953 134.665769,19.9530806 134.594649,20.6165892 L129.722265,19.7630461 C129.959002,17.9375677 130.705864,16.6333091 131.962851,15.8508866 C133.219269,15.0684642 134.689097,14.677253 136.372903,14.677253 C138.530136,14.677253 140.148321,15.2463134 141.227506,16.3843392 C142.306123,17.5224599 142.845739,19.0045203 142.845739,20.8299987 L142.845739,31.1793866 C142.845739,32.2941323 143.023541,33.4794297 143.379192,34.7358478 L138.506808,35.1626668 L137.937748,32.7086711 C137.510976,33.4677659 136.882459,34.107947 136.052812,34.6291668 C135.222597,35.1504341 134.369006,35.4115892 133.492136,35.4115892 C132.638593,35.4115892 131.867787,35.1448866 131.180429,34.6113866 Z M148.180142,34.0779293 C146.970948,33.1887784 146.188525,31.9501405 145.832875,30.3613517 L149.709426,29.0810371 C149.803922,29.5317052 149.981724,29.9345802 150.242926,30.290231 C150.788043,31.0726534 151.582176,31.4638647 152.625754,31.4638647 C153.218142,31.4638647 153.787202,31.333856 154.332887,31.0726534 C154.878051,30.8120672 155.15087,30.4091922 155.15087,29.8634595 C155.15087,29.1288302 154.640745,28.5597698 153.621586,28.1563259 L149.424944,26.4492397 C148.310198,25.9751966 147.456607,25.2638948 146.864267,24.3153819 C146.27131,23.3673431 145.975116,22.2053259 145.975116,20.829994 C145.975116,19.5496319 146.28909,18.447119 146.917607,17.5224552 C147.545556,16.5977914 148.375771,15.892606 149.407163,15.4063302 C150.438508,14.9206707 151.546569,14.6772483 152.732482,14.6772483 C154.226206,14.6772483 155.601017,15.1101362 156.857956,15.9753905 C158.114375,16.8411664 158.956301,18.0203474 159.383073,19.5140716 L155.257599,20.7943862 C155.162534,20.3915112 154.996396,19.9886362 154.759659,19.5851922 C154.23787,18.7794422 153.573793,18.3759983 152.768043,18.3759983 C152.175086,18.3759983 151.66553,18.5126922 151.238758,18.7849897 C150.811939,19.057856 150.598577,19.4551836 150.598577,19.9764034 C150.598577,20.5932569 151.179254,21.1622698 152.341271,21.6835371 L155.897732,23.1417009 C157.154198,23.7346578 158.138319,24.4815198 158.849573,25.3823345 C159.560875,26.2836233 159.916525,27.4928647 159.916525,29.0099164 C159.916525,30.3852957 159.584202,31.5528129 158.920741,32.5130371 C158.256663,33.4733086 157.391409,34.1968431 156.324504,34.6825026 C155.257599,35.1682095 154.131189,35.4115845 152.945844,35.4115845 C150.977556,35.4115845 149.389383,34.9670328 148.180142,34.0779293 Z M164.219526,34.0779293 C163.010332,33.1887784 162.22791,31.9501405 161.872259,30.3613517 L165.748811,29.0810371 C165.843306,29.5317052 166.021108,29.9345802 166.282311,30.290231 C166.827427,31.0726534 167.621561,31.4638647 168.665138,31.4638647 C169.257526,31.4638647 169.826587,31.333856 170.372272,31.0726534 C170.917436,30.8120672 171.190255,30.4091922 171.190255,29.8634595 C171.190255,29.1288302 170.68013,28.5597698 169.66097,28.1563259 L165.464328,26.4492397 C164.349582,25.9751966 163.495992,25.2638948 162.903651,24.3153819 C162.310694,23.3673431 162.0145,22.2053259 162.0145,20.829994 C162.0145,19.5496319 162.328475,18.447119 162.956992,17.5224552 C163.58494,16.5977914 164.415156,15.892606 165.446548,15.4063302 C166.477893,14.9206707 167.585953,14.6772483 168.771867,14.6772483 C170.265591,14.6772483 171.640401,15.1101362 172.897341,15.9753905 C174.153759,16.8411664 174.995686,18.0203474 175.422457,19.5140716 L171.296983,20.7943862 C171.201919,20.3915112 171.035781,19.9886362 170.799044,19.5851922 C170.277255,18.7794422 169.613177,18.3759983 168.807427,18.3759983 C168.21447,18.3759983 167.704914,18.5126922 167.278143,18.7849897 C166.851324,19.057856 166.637962,19.4551836 166.637962,19.9764034 C166.637962,20.5932569 167.218638,21.1622698 168.380656,21.6835371 L171.937117,23.1417009 C173.193582,23.7346578 174.177703,24.4815198 174.888957,25.3823345 C175.600259,26.2836233 175.95591,27.4928647 175.95591,29.0099164 C175.95591,30.3852957 175.623587,31.5528129 174.960125,32.5130371 C174.296048,33.4733086 173.430794,34.1968431 172.363888,34.6825026 C171.296983,35.1682095 170.170574,35.4115845 168.985229,35.4115845 C167.01694,35.4115845 165.428768,34.9670328 164.219526,34.0779293 Z M187.869749,22.7504754 C187.869749,21.327872 187.679715,20.2020315 187.300736,19.3718159 C186.921189,18.5421694 186.328232,18.1270616 185.522482,18.1270616 C185.119038,18.1270616 184.727827,18.3287599 184.348801,18.7316349 C183.969253,19.1350789 183.660874,19.6919065 183.424137,20.4032082 C183.186831,21.1145099 183.068486,21.8969323 183.068486,22.7504754 L187.869749,22.7504754 Z M179.974357,32.5841909 C178.71737,30.6992082 178.089422,28.1919194 178.089422,25.0622297 C178.089422,21.8852211 178.729603,19.3601522 180.009917,17.4868806 C181.290232,15.614178 183.151271,14.6772341 185.593603,14.6772341 C187.916973,14.6772341 189.695228,15.614178 190.928318,17.4868806 C192.160887,19.3601522 192.777741,21.8852211 192.777741,25.0622297 C192.777741,25.2522642 192.742133,25.3884366 192.671012,25.4712211 C192.599891,25.5545746 192.564331,25.6079151 192.564331,25.6312427 L183.068486,25.6312427 C183.068486,27.1728073 183.269663,28.5775832 183.673107,29.8457125 C184.075982,31.1143634 184.692219,31.7483806 185.522482,31.7483806 C186.447146,31.7483806 187.134551,31.214928 187.585219,30.1480228 C188.035366,29.0810703 188.272624,28.5241953 188.296521,28.4764496 L192.066439,29.899053 C191.568499,31.6061392 190.773844,32.9520746 189.683564,33.9356263 C188.592715,34.9197944 187.170111,35.4115703 185.415753,35.4115703 C183.04459,35.4115703 181.230822,34.4691263 179.974357,32.5841909 Z M195.409282,35.1626573 L195.409282,29.9345754 L200.388394,29.9345754 L200.388394,34.7358384 L195.409282,35.1626573 Z M212.764859,30.6636716 C213.214958,29.8695853 213.4406,28.524219 213.4406,26.6270509 L213.4406,19.9408526 C212.752626,18.8739 211.946876,18.3404474 211.022165,18.3404474 C210.239743,18.3404474 209.664613,18.6194302 209.297299,19.1762103 C208.929415,19.7336069 208.692678,20.4626888 208.585997,21.363456 C208.479269,22.2647922 208.425928,23.4617534 208.425928,24.9554776 C208.425928,26.4731457 208.479269,27.7062362 208.585997,28.654275 C208.692678,29.6028353 208.935531,30.373594 209.315079,30.9659819 C209.694057,31.5589388 210.26307,31.8551328 211.022165,31.8551328 C211.733467,31.8551328 212.314191,31.4583267 212.764859,30.6636716 M203.41135,24.9554776 C203.41135,21.3278957 203.885346,18.708331 204.833906,17.0956457 C205.781945,15.4835767 207.263958,14.6772578 209.279519,14.6772578 C210.133062,14.6772578 210.951044,14.9561931 211.733467,15.5130207 C212.515889,16.0704172 213.08495,16.7638914 213.4406,17.5935853 L213.4406,8.91572328 L218.455273,8.27558966 L218.455273,34.7358526 L214.685355,35.1626716 L213.4406,32.459706 C213.203294,33.3371931 212.764859,34.0484948 212.124678,34.5936112 C211.484544,35.138775 210.500376,35.411594 209.17279,35.411594 C205.331799,35.411594 203.41135,31.9262534 203.41135,24.9554776" id="Fill-61" fill="#2E3192"></path>
    </g>
</svg>