<?xml version="1.0" encoding="UTF-8"?>
<svg width="16px" height="18px" viewBox="0 0 16 18" version="1.1" xmlns="http://www.w3.org/2000/svg" xmlns:xlink="http://www.w3.org/1999/xlink">
    <!-- Generator: Sketch 51.3 (57544) - http://www.bohemiancoding.com/sketch -->
    <title>Paypal</title>
    <desc>Created with Sketch.</desc>
    <defs></defs>
    <g id="Desktop-Flinto" stroke="none" stroke-width="1" fill="none" fill-rule="evenodd">
        <g id="Pay" transform="translate(-781.000000, -346.000000)" fill="#022B87" fill-rule="nonzero">
            <g id="Paypal" transform="translate(773.000000, 339.000000)">
                <path d="M21.0912694,8.35750347 C20.2508946,7.40725367 18.7325199,7.00000375 16.7892703,7.00000375 L11.1511465,7.00000375 C10.7554554,6.99880503 10.417376,7.28493331 10.3531467,7.67537861 L8.00564717,22.4477505 C7.9841323,22.5870327 8.02471971,22.7287487 8.11670548,22.8355243 C8.20869125,22.9422999 8.34283954,23.0034145 8.48377207,23.0027504 L11.9645213,23.0027504 L12.8390212,17.5015016 L12.8116462,17.6740015 C12.8745116,17.2839547 13.2115664,16.9974582 13.606646,16.9982517 L15.2603957,16.9982517 C18.510895,16.9982517 21.0548944,15.6887519 21.7981443,11.9008777 C21.8206443,11.7883778 21.8558943,11.5731278 21.8558943,11.5731278 C22.0670192,10.1713781 21.8543943,9.22000329 21.0908944,8.35712847 L21.0912694,8.35750347 Z M22.7371441,12.2905026 C21.9286443,16.0198769 19.3508948,17.9935015 15.2607707,17.9935015 L13.777271,17.9935015 L12.6710212,25 L15.0770207,25 C15.4246456,25 15.7197706,24.7491251 15.7745205,24.4090001 L15.8026455,24.2605002 L16.3561454,20.7831259 L16.3917704,20.5911259 C16.447242,20.2496796 16.7425987,19.999151 17.0885203,20.000126 L17.5280202,20.000126 C20.3705196,20.000126 22.5965191,18.8541263 23.246769,15.541377 C23.5077689,14.2112522 23.382519,13.0963775 22.7371441,12.2905026 Z"></path>
            </g>
        </g>
    </g>
</svg>