<?xml version="1.0" encoding="utf-8"?>
<!-- Generator: Adobe Illustrator 22.1.0, SVG Export Plug-In . SVG Version: 6.00 Build 0)  -->
<svg version="1.1" id="Calque_1" xmlns="http://www.w3.org/2000/svg" xmlns:xlink="http://www.w3.org/1999/xlink" x="0px" y="0px"
	 viewBox="0 0 5182 1000" style="enable-background:new 0 0 5182 1000;" xml:space="preserve">
<style type="text/css">
	.st0{fill:#FFFFFF;}
	.st1{fill:url(#SVGID_1_);}
	.st2{fill:#29ABE2;}
	.st3{fill:url(#SVGID_2_);}
</style>
<g>
	<path class="st0" d="M967.6,737.1l-677,209.3c-3.9,1.2-8.1-1-9.3-4.9L140.9,487.6l691.2-213.7l140.3,453.9
		C973.7,731.7,971.5,735.8,967.6,737.1z"/>
	
		<linearGradient id="SVGID_1_" gradientUnits="userSpaceOnUse" x1="1941.3494" y1="-205.8997" x2="1941.3494" y2="-233.3181" gradientTransform="matrix(3.5189 -1.088 0.2954 0.9554 -6275.2173 2718.5903)">
		<stop  offset="0" style="stop-color:#FFFFFF;stop-opacity:0"/>
		<stop  offset="0.1631" style="stop-color:#FCFBFC;stop-opacity:0.1631"/>
		<stop  offset="0.3077" style="stop-color:#F1F1F1;stop-opacity:0.3077"/>
		<stop  offset="0.4453" style="stop-color:#DFDFDF;stop-opacity:0.4453"/>
		<stop  offset="0.5785" style="stop-color:#C6C5C5;stop-opacity:0.5785"/>
		<stop  offset="0.7087" style="stop-color:#A5A4A5;stop-opacity:0.7087"/>
		<stop  offset="0.8365" style="stop-color:#7E7C7C;stop-opacity:0.8365"/>
		<stop  offset="0.9602" style="stop-color:#504D4E;stop-opacity:0.9602"/>
		<stop  offset="1" style="stop-color:#3F3C3D"/>
	</linearGradient>
	<polygon class="st1" points="841.1,302.8 149.8,516.6 141.7,490.4 833,276.6 	"/>
	<g>
		<path class="st0" d="M815.4,207.1L117.1,423c-4.5,1.4-7.1,6.2-5.7,10.7l16.1,52c1.4,4.5,6.2,7.1,10.7,5.7l698.3-215.9
			c4.5-1.4,7.1-6.2,5.7-10.7l-16.1-52C824.7,208.3,819.9,205.7,815.4,207.1z"/>
		<path class="st0" d="M114.2,410.9c2.2,4.2,7.3,5.9,11.5,3.7L776.9,82.7c4.2-2.2,5.9-7.3,3.7-11.5l-24.7-48.5
			c-2.2-4.2-7.3-5.9-11.5-3.7L93.2,350.8c-4.2,2.2-5.9,7.3-3.7,11.5L114.2,410.9z"/>
	</g>
	<g>
		<polygon class="st2" points="597.1,274.6 569.8,358 642.5,335.5 669.8,252.2 		"/>
		<polygon class="st2" points="479.7,310.9 452.4,394.3 525.1,371.8 552.4,288.5 		"/>
		<polygon class="st2" points="366.1,346 338.9,429.4 411.6,406.9 438.8,323.6 		"/>
		<polygon class="st2" points="714.4,238.3 687.2,321.7 759.9,299.2 787.2,215.9 		"/>
		<polygon class="st2" points="573.3,186.5 495.7,145.7 563.5,111.1 641.1,151.9 		"/>
		<polygon class="st2" points="463.9,242.3 386.2,201.5 454,166.9 531.7,207.7 		"/>
		<polygon class="st2" points="358,296.2 280.4,255.5 348.2,220.9 425.8,261.7 		"/>
		<polygon class="st2" points="682.8,130.7 605.2,89.9 673,55.3 750.6,96.1 		"/>
	</g>
	<path class="st0" d="M292.2,377.8l-116.5-57.9c-2.9-1.4-6.3-1.7-9.4-0.8l-62.6,19.3c-6.7,2.1-10.4,9.1-8.3,15.8l35.7,115.5
		c2.1,6.7,9.1,10.4,15.8,8.3L299.5,431c6.7-2.1,10.4-9.1,8.3-15.8l-9.2-29.8C297.6,382.1,295.3,379.4,292.2,377.8z"/>
	<g>
		<path class="st2" d="M131.2,355.8c-5.5,1.8-8.5,7.8-6.7,13.3c1.8,5.5,7.8,8.5,13.4,6.7c5.5-1.8,8.5-7.8,6.7-13.3
			C142.7,357,136.8,354,131.2,355.8z"/>
		<path class="st2" d="M156,435.9c-5.5,1.8-8.5,7.8-6.7,13.3c1.8,5.5,7.8,8.5,13.4,6.7c5.5-1.8,8.5-7.8,6.7-13.3
			C167.5,437.1,161.5,434.1,156,435.9z"/>
		<path class="st2" d="M263.9,402.5c-5.5,1.8-8.5,7.8-6.7,13.3c1.8,5.5,7.8,8.5,13.4,6.7c5.5-1.8,8.5-7.8,6.7-13.3
			C275.4,403.7,269.5,400.7,263.9,402.5z"/>
	</g>
	<linearGradient id="SVGID_2_" gradientUnits="userSpaceOnUse" x1="521.0745" y1="746.4349" x2="593.1776" y2="477.3422">
		<stop  offset="0" style="stop-color:#2E3192"/>
		<stop  offset="0.1105" style="stop-color:#2D3F9A"/>
		<stop  offset="0.3206" style="stop-color:#2965AE"/>
		<stop  offset="0.6085" style="stop-color:#24A2CE"/>
		<stop  offset="0.9599" style="stop-color:#1CF5FA"/>
		<stop  offset="1" style="stop-color:#1BFFFF"/>
	</linearGradient>
	<path class="st3" d="M415.3,585.5l34.7-27.9l55.9,69.6l9.4-122l45.6-36.6l-13.5,125.1l152.7,40.9l-45.4,36.4l-111.2-31.9l-3.2,30.9
		l45.3,56.5l-34.7,27.9L415.3,585.5z"/>
</g>
<g>
	<g>
		<path class="st0" d="M1325.8,742.7L1228.3,481l-42.8,74.3V733h-110.3V179.4l110.3-9v246l133.5-246h117L1315.3,403l122.3,314.3
			L1325.8,742.7z"/>
		<path class="st0" d="M1490.8,737.5V319.7l105-9v417.8L1490.8,737.5z M1491.6,256.7V147.9l105-7.5v111.8L1491.6,256.7z"/>
		<path class="st0" d="M1688.1,319.7l105-9v54c21.5-19,42.6-33.6,63.4-43.9c20.7-10.2,39.9-15.4,57.4-15.4
			c26.5,0,48.1,9.6,64.9,28.9c16.7,19.3,25.1,45.1,25.1,77.6v316.5l-105,9V451.7c0-37.5-12.8-56.3-38.3-56.3
			c-8.5,0-17.9,2.5-28.1,7.5c-10.3,5-23.4,12.3-39.4,21.8v303.8l-105,9V319.7z"/>
		<path class="st0" d="M2113,682.7c-27.3-40-40.9-93.3-40.9-159.8c0-66,13.5-118.8,40.5-158.3c27-39.5,66-59.3,117-59.3
			c50.5,0,89.6,19.8,117.4,59.3c27.8,39.5,41.6,92.3,41.6,158.3c0,66-13.9,119.1-41.6,159.4c-27.8,40.3-66.9,60.4-117.4,60.4
			C2179.1,742.7,2140.3,722.8,2113,682.7z M2273.2,623.5c6.5-27.5,9.8-61.2,9.8-101.3c0-40-3.3-73.8-9.8-101.3
			c-6.5-27.5-21-41.3-43.5-41.3c-22.5,0-36.8,13-42.8,39c-6,26-9,57.8-9,95.3c0,46,3,82.6,9,109.9c6,27.3,20.3,40.9,42.8,40.9
			C2252.2,664.7,2266.7,651,2273.2,623.5z"/>
		<path class="st0" d="M2685,742.7l-85.5-210l-34.5,45.8V733h-105V183.9l105-13.5v279l107.3-138.8h114L2667.7,463L2778,711.2
			L2685,742.7z"/>
		<path class="st0" d="M2855.2,725.9c-14.5-11.3-25.8-26.5-33.8-45.8c-8-19.2-12-40.9-12-64.9c0-54.5,18.6-92.9,55.9-115.1
			c37.2-22.2,80.6-34.9,130.1-37.9c0-27-1.8-47-5.3-60c-3.5-13-12-19.5-25.5-19.5c-11.5,0-20.3,4.5-26.3,13.5
			c-6,9-9.8,20.5-11.3,34.5l-102.8-18c5-38.5,20.7-66,47.3-82.5c26.5-16.5,57.5-24.8,93-24.8c45.5,0,79.6,12,102.4,36
			c22.7,24,34.1,55.3,34.1,93.8v218.3c0,23.5,3.8,48.5,11.3,75l-102.8,9l-12-51.8c-9,16-22.3,29.5-39.8,40.5
			c-17.5,11-35.5,16.5-54,16.5C2886,742.7,2869.7,737.1,2855.2,725.9z M2974.1,661.7c5.7-4,12.9-10.5,21.4-19.5v-117
			c-25,0-45,6.8-60,20.3c-15,13.5-22.5,34.5-22.5,63c0,19,3.4,33.6,10.1,43.9c6.8,10.3,16.6,15.4,29.6,15.4
			C2961.2,667.7,2968.4,665.7,2974.1,661.7z"/>
		<path class="st0" d="M3213.8,714.6c-25.5-18.8-42-44.9-49.5-78.4l81.8-27c2,9.5,5.7,18,11.3,25.5c11.5,16.5,28.2,24.8,50.3,24.8
			c12.5,0,24.5-2.7,36-8.3c11.5-5.5,17.3-14,17.3-25.5c0-15.5-10.8-27.5-32.3-36l-88.5-36c-23.5-10-41.5-25-54-45
			c-12.5-20-18.8-44.5-18.8-73.5c0-27,6.6-50.3,19.9-69.8c13.2-19.5,30.8-34.4,52.5-44.6c21.8-10.2,45.1-15.4,70.1-15.4
			c31.5,0,60.5,9.1,87,27.4c26.5,18.3,44.3,43.1,53.3,74.6l-87,27c-2-8.5-5.5-17-10.5-25.5c-11-17-25-25.5-42-25.5
			c-12.5,0-23.3,2.9-32.3,8.6c-9,5.8-13.5,14.1-13.5,25.1c0,13,12.2,25,36.8,36l75,30.8c26.5,12.5,47.3,28.3,62.3,47.3
			c15,19,22.5,44.5,22.5,76.5c0,29-7,53.6-21,73.9c-14,20.3-32.3,35.5-54.8,45.8c-22.5,10.2-46.3,15.4-71.3,15.4
			C3272.8,742.7,3239.3,733.4,3213.8,714.6z"/>
		<path class="st0" d="M3552.1,714.6c-25.5-18.8-42-44.9-49.5-78.4l81.8-27c2,9.5,5.7,18,11.3,25.5c11.5,16.5,28.2,24.8,50.3,24.8
			c12.5,0,24.5-2.7,36-8.3c11.5-5.5,17.3-14,17.3-25.5c0-15.5-10.8-27.5-32.3-36l-88.5-36c-23.5-10-41.5-25-54-45
			c-12.5-20-18.8-44.5-18.8-73.5c0-27,6.6-50.3,19.9-69.8c13.2-19.5,30.8-34.4,52.5-44.6c21.8-10.2,45.1-15.4,70.1-15.4
			c31.5,0,60.5,9.1,87,27.4c26.5,18.3,44.3,43.1,53.3,74.6l-87,27c-2-8.5-5.5-17-10.5-25.5c-11-17-25-25.5-42-25.5
			c-12.5,0-23.3,2.9-32.3,8.6c-9,5.8-13.5,14.1-13.5,25.1c0,13,12.2,25,36.8,36l75,30.8c26.5,12.5,47.3,28.3,62.3,47.3
			c15,19,22.5,44.5,22.5,76.5c0,29-7,53.6-21,73.9c-14,20.3-32.3,35.5-54.8,45.8c-22.5,10.2-46.3,15.4-71.3,15.4
			C3611.1,742.7,3577.6,733.4,3552.1,714.6z"/>
		<path class="st0" d="M3884.3,683.1c-26.5-39.8-39.8-92.6-39.8-158.6c0-67,13.5-120.3,40.5-159.8c27-39.5,66.3-59.3,117.8-59.3
			c49,0,86.5,19.8,112.5,59.3c26,39.5,39,92.8,39,159.8c0,4-0.8,6.9-2.3,8.6c-1.5,1.8-2.2,2.9-2.2,3.4h-200.3
			c0,32.5,4.2,62.1,12.8,88.9c8.5,26.8,21.5,40.1,39,40.1c19.5,0,34-11.3,43.5-33.8c9.5-22.5,14.5-34.2,15-35.3l79.5,30
			c-10.5,36-27.3,64.4-50.3,85.1c-23,20.8-53,31.1-90,31.1C3949.1,742.7,3910.8,722.9,3884.3,683.1z M4050.9,475.7
			c0-30-4-53.7-12-71.3c-8-17.5-20.5-26.3-37.5-26.3c-8.5,0-16.8,4.3-24.8,12.8c-8,8.5-14.5,20.3-19.5,35.3c-5,15-7.5,31.5-7.5,49.5
			H4050.9z"/>
		<path class="st0" d="M4209.9,737.5V627.2h105v101.3L4209.9,737.5z"/>
		<path class="st0" d="M4378.7,522.2c0-76.5,10-131.8,30-165.8c20-34,51.3-51,93.8-51c18,0,35.3,5.9,51.8,17.6
			c16.5,11.8,28.5,26.4,36,43.9v-183l105.8-13.5v558.1l-79.5,9l-26.3-57c-5,18.5-14.3,33.5-27.8,45c-13.5,11.5-34.3,17.3-62.3,17.3
			C4419.2,742.7,4378.7,669.2,4378.7,522.2z M4575.9,642.6c9.5-16.7,14.3-45.1,14.3-85.1v-141c-14.5-22.5-31.5-33.8-51-33.8
			c-16.5,0-28.6,5.9-36.4,17.6c-7.8,11.8-12.8,27.1-15,46.1c-2.3,19-3.4,44.3-3.4,75.8c0,32,1.1,58,3.4,78
			c2.2,20,7.4,36.3,15.4,48.8c8,12.5,20,18.8,36,18.8C4554.2,667.7,4566.4,659.4,4575.9,642.6z"/>
		<path class="st0" d="M4805.4,683.1c-26.5-39.8-39.8-92.6-39.8-158.6c0-67,13.5-120.3,40.5-159.8c27-39.5,66.3-59.3,117.8-59.3
			c49,0,86.5,19.8,112.5,59.3c26,39.5,39,92.8,39,159.8c0,4-0.8,6.9-2.3,8.6c-1.5,1.8-2.2,2.9-2.2,3.4h-200.3
			c0,32.5,4.2,62.1,12.8,88.9c8.5,26.8,21.5,40.1,39,40.1c19.5,0,34-11.3,43.5-33.8c9.5-22.5,14.5-34.2,15-35.3l79.5,30
			c-10.5,36-27.3,64.4-50.3,85.1c-23,20.8-53,31.1-90,31.1C4870.2,742.7,4831.9,722.9,4805.4,683.1z M4972,475.7
			c0-30-4-53.7-12-71.3c-8-17.5-20.5-26.3-37.5-26.3c-8.5,0-16.8,4.3-24.8,12.8c-8,8.5-14.5,20.3-19.5,35.3c-5,15-7.5,31.5-7.5,49.5
			H4972z"/>
	</g>
</g>
</svg>
