<?xml version="1.0" encoding="UTF-8"?>
<svg width="32px" height="32px" viewBox="0 0 32 32" version="1.1" xmlns="http://www.w3.org/2000/svg" xmlns:xlink="http://www.w3.org/1999/xlink">
    <!-- Generator: Sketch 51.3 (57544) - http://www.bohemiancoding.com/sketch -->
    <title>Visa Selected</title>
    <desc>Created with Sketch.</desc>
    <defs>
        <linearGradient x1="0%" y1="100%" x2="100%" y2="0%" id="linearGradient-1">
            <stop stop-color="#2E3192" offset="0%"></stop>
            <stop stop-color="#1BFFFF" offset="100%"></stop>
        </linearGradient>
    </defs>
    <g id="Desktop-Flinto" stroke="none" stroke-width="1" fill="none" fill-rule="evenodd" opacity="0">
        <g id="Pay" transform="translate(-645.000000, -339.000000)">
            <g id="Visa-Selected" transform="translate(645.000000, 339.000000)">
                <rect id="Rectangle-15-Copy" fill="url(#linearGradient-1)" x="0" y="0" width="32" height="32"></rect>
                <path d="M14.1382629,19.9323944 L11.8535211,19.9323944 L13.2814554,11.1568075 L15.5664319,11.1568075 L14.1382629,19.9323944 Z M9.9314554,11.1568075 L7.75328638,17.192723 L7.49553991,15.8929577 L7.49577465,15.8934272 L6.72699531,11.9469484 C6.72699531,11.9469484 6.63403756,11.1568075 5.64319249,11.1568075 L2.04225352,11.1568075 L2,11.3053991 C2,11.3053991 3.10117371,11.534507 4.3899061,12.3084507 L6.37488263,19.9326291 L8.75539906,19.9326291 L12.3903756,11.1568075 L9.9314554,11.1568075 Z M27.9021127,19.9323944 L30,19.9323944 L28.170892,11.1565728 L26.3342723,11.1565728 C25.4861502,11.1565728 25.2795775,11.8105634 25.2795775,11.8105634 L21.8720657,19.9323944 L24.2537559,19.9323944 L24.7300469,18.6288732 L27.634507,18.6288732 L27.9021127,19.9323944 Z M25.3880282,16.828169 L26.5884977,13.5441315 L27.2638498,16.828169 L25.3880282,16.828169 Z M22.0507042,13.2671362 C21.0730047,12.7284038 18.8478873,12.600939 18.8476526,13.5931925 C18.8476526,14.5852113 22.0361502,14.7976526 22.0361502,17.0793427 C22.0361502,19.2765258 19.6840376,20.0838028 18.1248826,20.0838028 C16.5661972,20.0838028 15.5460094,19.5882629 15.5460094,19.5882629 L15.8856808,17.6178404 C16.8211268,18.3687793 19.6556338,18.5821596 19.6556338,17.3913146 C19.6556338,16.2004695 16.4955399,16.1723005 16.4955399,13.9051643 C16.4955399,11.4955399 19.1880282,11 20.321831,11 C21.3706573,11 22.3767606,11.3826291 22.3767606,11.3826291 L22.0507042,13.2671362 Z" id="Combined-Shape" fill="#F8F8F8" fill-rule="nonzero"></path>
            </g>
        </g>
    </g>
</svg>