<?xml version="1.0" encoding="UTF-8"?>
<svg width="28px" height="17px" viewBox="0 0 28 17" version="1.1" xmlns="http://www.w3.org/2000/svg" xmlns:xlink="http://www.w3.org/1999/xlink">
    <!-- Generator: Sketch 51.3 (57544) - http://www.bohemiancoding.com/sketch -->
    <title>MasterCard</title>
    <desc>Created with Sketch.</desc>
    <defs></defs>
    <g id="Desktop-Flinto" stroke="none" stroke-width="1" fill="none" fill-rule="evenodd">
        <g id="Pay" transform="translate(-711.000000, -347.000000)" fill-rule="nonzero">
            <g id="MasterCard" transform="translate(709.000000, 339.000000)">
                <g transform="translate(2.000000, 8.000000)" id="Shape">
                    <path d="M13.9540121,14.6204121 C15.4247758,15.9756121 17.3998788,16.7976242 19.5482424,16.7976242 C24.1621333,16.7976242 27.8964848,13.0344242 27.8964848,8.40593939 C27.8964848,3.7633697 24.1621333,0 19.5482424,0 C17.3998788,0 15.4247758,0.821842424 13.9540121,2.17721212 C12.2670545,3.71992727 11.2,5.94041212 11.2,8.40593939 C11.2001697,10.8714667 12.2670545,13.0921212 13.9540121,14.6204121 Z" fill="#E9B040"></path>
                    <path d="M26.8121212,12.9867394 C26.8121212,12.842497 26.9275152,12.7272727 27.0715879,12.7272727 C27.2300848,12.7272727 27.3453091,12.8426667 27.3453091,12.9867394 C27.3453091,13.1455758 27.2299152,13.2608 27.0715879,13.2608 C26.9275152,13.2608 26.8121212,13.1455758 26.8121212,12.9867394 Z M27.0715879,13.2032727 C27.1869818,13.2032727 27.2876121,13.1021333 27.2876121,12.9869091 C27.2876121,12.8716848 27.1868121,12.7851394 27.0715879,12.7851394 C26.9704485,12.7851394 26.8698182,12.8716848 26.8698182,12.9869091 C26.8698182,13.1021333 26.9706182,13.2032727 27.0715879,13.2032727 Z M27.0427394,13.1167273 L26.9850424,13.1167273 L26.9850424,12.8715152 L27.0858424,12.8715152 C27.1004364,12.8715152 27.1292848,12.8715152 27.1435394,12.8861091 C27.1723879,12.9003636 27.1723879,12.9149576 27.1723879,12.9438061 C27.1723879,12.9726545 27.1581333,13.001503 27.1292848,13.001503 L27.1869818,13.116897 L27.1146909,13.116897 L27.0858424,13.0157576 L27.0427394,13.0157576 L27.0427394,13.1167273 L27.0427394,12.9724848 L27.1004364,12.9724848 C27.1146909,12.9724848 27.1146909,12.9578909 27.1146909,12.9436364 C27.1146909,12.9290424 27.1146909,12.9290424 27.1004364,12.9147879 L27.0427394,12.9147879 L27.0427394,13.1167273 Z" fill="#E9B040"></path>
                    <path d="M16.6532121,7.51214545 C16.6243636,7.20940606 16.5666667,6.92109091 16.5089697,6.61818182 L11.4048242,6.61818182 C11.4625212,6.31544242 11.5490667,6.02712727 11.6354424,5.73864242 L16.2639273,5.73864242 C16.1634576,5.43511116 16.047978,5.13675592 15.9179152,4.84467879 L11.9960485,4.84467879 C12.1403056,4.53927026 12.2990974,4.24094108 12.4718788,3.95071515 L15.4278303,3.95071515 C15.2376391,3.64277947 15.0256553,3.34884897 14.793503,3.07117576 L13.1063758,3.07117576 C13.3673444,2.75247458 13.651695,2.45365964 13.9570667,2.17721212 C12.4720485,0.836266667 10.5110303,0 8.34824242,0 C3.74877576,0 0,3.7633697 0,8.40593939 C0,13.0344242 3.74877576,16.7976242 8.34824242,16.7976242 C10.5110303,16.7976242 12.4718788,15.9756121 13.9570667,14.6204121 C14.257773,14.3488001 14.5373912,14.054716 14.793503,13.740703 L13.1063758,13.740703 C12.8755879,13.4523879 12.6738182,13.1640727 12.4718788,12.8467394 L15.4278303,12.8467394 C15.6136976,12.5616244 15.7775893,12.2627729 15.9180848,11.9527758 L11.9960485,11.9527758 C11.8662303,11.6644606 11.7365818,11.3761455 11.6354424,11.0730667 L16.2639273,11.0730667 C16.3647273,10.7847515 16.4370182,10.4821818 16.5088,10.179103 C16.566497,9.89078788 16.6241939,9.58821818 16.6530424,9.28513939 C16.6822685,8.99281724 16.6967676,8.69920969 16.6964848,8.4054303 C16.6964848,8.1032 16.6820606,7.80046061 16.6532121,7.51214545 Z" fill="#CC2131"></path>
                    <path d="M26.8121212,10.2858424 C26.8121212,10.1273455 26.9275152,10.0121212 27.0715879,10.0121212 C27.2300848,10.0121212 27.3453091,10.1275152 27.3453091,10.2858424 C27.3453091,10.4300848 27.2299152,10.559903 27.0715879,10.559903 C26.9275152,10.559903 26.8121212,10.4299152 26.8121212,10.2858424 Z M27.0715879,10.4876121 C27.1869818,10.4876121 27.2876121,10.4010667 27.2876121,10.2858424 C27.2876121,10.1706182 27.1868121,10.0840727 27.0715879,10.0840727 C26.9704485,10.0840727 26.8698182,10.1706182 26.8698182,10.2858424 C26.8698182,10.4010667 26.9706182,10.4876121 27.0715879,10.4876121 Z M27.0427394,10.4010667 L26.9850424,10.4010667 L26.9850424,10.1704485 L27.1435394,10.1704485 C27.1723879,10.1850424 27.1723879,10.2138909 27.1723879,10.2427394 C27.1723879,10.2569939 27.1581333,10.2858424 27.1292848,10.3004364 L27.1869818,10.4012364 L27.1146909,10.4012364 L27.0858424,10.3146909 L27.0427394,10.3146909 L27.0427394,10.4010667 L27.0427394,10.2714182 L27.0715879,10.2714182 C27.0858424,10.2714182 27.1004364,10.2714182 27.1004364,10.2568242 C27.1146909,10.2568242 27.1146909,10.2425697 27.1146909,10.2279758 C27.1146909,10.2279758 27.1146909,10.2137212 27.1004364,10.2137212 C27.1004364,10.1991273 27.0858424,10.2137212 27.0715879,10.2137212 L27.0427394,10.2137212 L27.0427394,10.4010667 Z" fill="#FFFFFF"></path>
                    <path d="M11.0922424,10.7598061 C10.8183515,10.8317576 10.6164121,10.8752 10.4146424,10.8752 C9.98208485,10.8752 9.72244848,10.6011394 9.72244848,10.1108848 C9.72244848,10.0100848 9.73687273,9.90911515 9.75129697,9.79372121 L9.80899394,9.46230303 L9.85226667,9.18824242 L10.2415515,6.82368485 L11.1066667,6.82368485 L11.005697,7.34278788 L11.5536485,7.34278788 L11.4238303,8.20790303 L10.8758788,8.20790303 L10.6452606,9.6208 C10.6308364,9.69309091 10.6308364,9.73619394 10.6308364,9.76504242 C10.6308364,9.95255758 10.7173818,10.0245091 10.9335758,10.0245091 C11.0345455,10.0245091 11.1209212,10.0102545 11.2074667,9.99566061 L11.0922424,10.7598061 Z M13.8895273,10.7309576 C13.5723636,10.817503 13.2840485,10.8606061 12.9667152,10.8606061 C11.9862061,10.8606061 11.4238303,10.341503 11.4238303,9.31806061 C11.4238303,8.12118788 12.0871758,7.25607273 13.0098182,7.25607273 C13.7451152,7.25607273 14.2209455,7.74632727 14.2209455,8.51030303 C14.2209455,8.77010909 14.192097,9.01515152 14.1201455,9.36116364 L12.3177939,9.36116364 C12.3033697,9.41886061 12.3033697,9.44770909 12.3033697,9.47655758 C12.3033697,9.88026667 12.5772606,10.0820364 13.0963636,10.0820364 C13.4279515,10.0820364 13.7162667,10.0100848 14.0336,9.86601212 L13.8895273,10.7309576 Z M13.356,8.66913939 L13.356,8.49604848 C13.356,8.20773333 13.1973333,8.04906667 12.9234424,8.04906667 C12.6349576,8.04906667 12.4331879,8.26526061 12.3466424,8.6689697 L13.356,8.6689697 L13.356,8.66913939 Z M4.17132121,10.8029091 L3.27735758,10.8029091 L3.79646061,7.53013333 L2.62860606,10.8029091 L2.00870303,10.8029091 L1.93658182,7.54455758 L1.3886303,10.8029091 L0.509090909,10.8029091 L1.21553939,6.54962424 L2.52763636,6.54962424 L2.55648485,9.17398788 L3.43602424,6.54962424 L4.87793939,6.54962424 L4.17132121,10.8029091 Z M6.34870303,9.26036364 C6.26215758,9.2457697 6.23330909,9.2457697 6.17561212,9.2457697 C5.65650909,9.2457697 5.39704242,9.44753939 5.39704242,9.76487273 C5.39704242,9.98123636 5.52686061,10.1254788 5.7286303,10.1254788 C6.16118788,10.1254788 6.33410909,9.76487273 6.34870303,9.26036364 Z M7.06957576,10.8029091 L6.29100606,10.8029091 L6.3054303,10.4426424 C6.10349091,10.7163636 5.8296,10.8606061 5.3537697,10.8606061 C4.92121212,10.8606061 4.54635152,10.4714909 4.54635152,9.90911515 C4.54635152,9.75061818 4.5752,9.60654545 4.61847273,9.46230303 C4.76254545,8.92860606 5.29607273,8.59718788 6.11791515,8.58259394 C6.21888485,8.58259394 6.37738182,8.58259394 6.52162424,8.59718788 C6.55030303,8.48179394 6.55030303,8.43835152 6.55030303,8.3664 C6.55030303,8.13561212 6.36295758,8.06349091 5.94482424,8.06349091 C5.68535758,8.06349091 5.39687273,8.10676364 5.19510303,8.17888485 L5.06528485,8.20773333 L5.00758788,8.22198788 L5.13740606,7.44341818 C5.55553939,7.3136 5.85827879,7.25607273 6.19003636,7.25607273 C6.96860606,7.25607273 7.38673939,7.61650909 7.38673939,8.27968485 C7.38673939,8.45277576 7.40116364,8.58259394 7.34346667,8.95745455 L7.14169697,10.1974303 L7.11284848,10.4137939 L7.09842424,10.5868848 L7.084,10.7022788 L7.06957576,10.8029091 Z M18.2439515,7.37146667 C18.5034182,7.37146667 18.7342061,7.44358788 19.0513697,7.60208485 L19.2098667,6.67927273 C19.1233212,6.636 19.0944727,6.636 18.9792485,6.59272727 L18.6189818,6.49175758 C18.5035879,6.46290909 18.3595152,6.44848485 18.2006788,6.44848485 C17.7535273,6.44848485 17.4940606,6.46290909 17.2203394,6.62157576 C17.076097,6.72254545 16.8885818,6.85236364 16.6866424,7.08298182 L16.5712485,7.05413333 L15.6484364,7.70288485 L15.6918788,7.34244848 L14.7400485,7.34244848 L14.1780121,10.8027394 L15.0865697,10.8027394 L15.4179879,8.9430303 C15.4179879,8.9430303 15.5479758,8.68322424 15.605503,8.59701818 C15.7785939,8.38065455 15.9226667,8.38065455 16.1100121,8.38065455 L16.182303,8.38065455 C16.1520384,8.60039556 16.1375205,8.82201897 16.1388606,9.0438303 C16.1388606,10.1684121 16.7731879,10.8750303 17.753697,10.8750303 C17.9989091,10.8750303 18.2154424,10.8461818 18.5468606,10.7596364 L18.705697,9.77929697 C18.4173818,9.93779394 18.1577455,10.0099152 17.9413818,10.0099152 C17.4080242,10.0099152 17.0905212,9.60620606 17.0905212,8.97187879 C17.0901818,8.03464242 17.5661818,7.37146667 18.2439515,7.37146667 Z M25.8998303,6.54962424 L25.6982303,7.76075152 C25.4818667,7.42916364 25.2222303,7.27049697 24.8762182,7.27049697 C24.4002182,7.27049697 23.9534061,7.54438788 23.6793455,8.06349091 L23.6793455,8.04923636 L23.1027152,7.70305455 L23.1604121,7.34261818 L22.1943273,7.34261818 L21.6463758,10.8029091 L22.5403394,10.8029091 L22.8432485,8.9432 C22.8432485,8.9432 23.0738667,8.68339394 23.1315636,8.59718788 C23.2758061,8.42409697 23.4198788,8.39507879 23.5352727,8.38082424 C23.4344727,8.66913939 23.3767758,9.01515152 23.3767758,9.40460606 C23.3767758,10.2697212 23.8235879,10.8463515 24.4867636,10.8463515 C24.8185212,10.8463515 25.0779879,10.7309576 25.3230303,10.456897 L25.2799273,10.8029091 L26.1307879,10.8029091 L26.8228121,6.54962424 L25.8998303,6.54962424 Z M24.7898424,9.98123636 C24.4869333,9.98123636 24.3284364,9.75061818 24.3284364,9.30346667 C24.3284364,8.62569697 24.6167515,8.13561212 25.0347152,8.13561212 C25.3518788,8.13561212 25.5107152,8.38082424 25.5107152,8.81338182 C25.5107152,9.50540606 25.2224,9.98123636 24.7898424,9.98123636 Z M20.623103,9.26036364 C20.5365576,9.2457697 20.5077091,9.2457697 20.4500121,9.2457697 C19.9305697,9.2457697 19.671103,9.44753939 19.671103,9.76487273 C19.671103,9.98123636 19.8010909,10.1254788 20.0028606,10.1254788 C20.4354182,10.1254788 20.6085091,9.76487273 20.623103,9.26036364 Z M21.3439758,10.8029091 L20.5508121,10.8029091 L20.5796606,10.4426424 C20.3778909,10.7163636 20.1036606,10.8606061 19.6281697,10.8606061 C19.1810182,10.8606061 18.791903,10.4857455 18.791903,9.90911515 C18.791903,9.08744242 19.4116364,8.58276364 20.3921455,8.58276364 C20.4932848,8.58276364 20.6516121,8.58276364 20.7816,8.59735758 C20.8104485,8.48196364 20.8250424,8.43852121 20.8250424,8.3665697 C20.8250424,8.13578182 20.6375273,8.06366061 20.2049697,8.06366061 C19.9597576,8.06366061 19.6570182,8.10693333 19.4552485,8.17905455 L19.3398545,8.20790303 L19.2821576,8.22215758 L19.4118061,7.44358788 C19.8301091,7.3137697 20.1330182,7.25624242 20.4644364,7.25624242 C21.2430061,7.25624242 21.6467152,7.61667879 21.6467152,8.27985455 C21.6467152,8.45294545 21.6755636,8.58276364 21.6036121,8.95762424 L21.416097,10.1976 L21.3872485,10.4139636 L21.3584,10.5870545 L21.3441455,10.7024485 L21.3441455,10.8029091 L21.3439758,10.8029091 Z M8.95830303,8.07791515 C9.13139394,8.07791515 9.37643636,8.09233939 9.63607273,8.13561212 L9.76589091,7.32819394 C9.50625455,7.29934545 9.16024242,7.25607273 8.95830303,7.25607273 C7.94911515,7.25607273 7.61752727,7.80402424 7.61752727,8.43835152 C7.61752727,8.85665455 7.80487273,9.15922424 8.29512727,9.38984242 C8.65556364,9.56293333 8.71326061,9.59161212 8.71326061,9.75044848 C8.71326061,9.96647273 8.52591515,10.0964606 8.17973333,10.0964606 C7.90584242,10.0964606 7.64620606,10.0530182 7.35789091,9.95221818 L7.25692121,10.7450424 L7.27117576,10.7596364 L7.44426667,10.7884848 C7.50196364,10.8027394 7.57408485,10.8173333 7.67505455,10.8315879 C7.89124848,10.8461818 8.07876364,10.8604364 8.19415758,10.8604364 C9.20351515,10.8604364 9.62164848,10.4713212 9.62164848,9.70700606 C9.62164848,9.23134545 9.39086061,8.9430303 8.94387879,8.74126061 C8.55459394,8.568 8.51132121,8.53949091 8.51132121,8.38065455 C8.51132121,8.22215758 8.68441212,8.07791515 8.95830303,8.07791515 Z" fill="#1B3771"></path>
                    <path d="M19.5204121,6.49498182 L19.3615758,7.41779394 C19.0444121,7.25912727 18.8136242,7.18717576 18.5541576,7.18717576 C17.8763879,7.18717576 17.4007273,7.85035152 17.4007273,8.78758788 C17.4007273,9.43650909 17.7178909,9.82562424 18.2515879,9.82562424 C18.4676121,9.82562424 18.7272485,9.75367273 19.0155636,9.6096 L18.8570667,10.5753455 C18.5253091,10.6618909 18.3091152,10.7053333 18.063903,10.7053333 C17.0835636,10.7053333 16.4779152,9.99871515 16.4779152,8.85987879 C16.4779152,7.34584242 17.3141818,6.27878788 18.5108848,6.27878788 C18.6693818,6.27878788 18.8134545,6.29321212 18.9288485,6.32206061 L19.2894545,6.40860606 C19.4050182,6.45187879 19.4338667,6.46630303 19.5204121,6.49498182 Z M16.6077333,7.12947879 L16.5211879,7.12947879 C16.2186182,7.12947879 16.0455273,7.27372121 15.7714667,7.69168485 L15.8580121,7.15815758 L15.036,7.15815758 L14.4739636,10.6186182 L15.3825212,10.6186182 C15.7139394,8.49910303 15.8004848,8.13866667 16.2330424,8.13866667 L16.2907394,8.13866667 C16.3772848,7.72053333 16.4925091,7.41762424 16.6367515,7.14373333 L16.6077333,7.12947879 Z M11.3883636,10.5753455 C11.1433212,10.6618909 10.9413818,10.6907394 10.7396121,10.6907394 C10.2782061,10.6907394 10.0185697,10.4312727 10.0185697,9.92676364 C10.0185697,9.84021818 10.0329939,9.72499394 10.0474182,9.62385455 L10.1051152,9.27784242 L10.1483879,9.00412121 L10.5376727,6.63922424 L11.4316364,6.63922424 L11.3306667,7.15832727 L11.7920727,7.15832727 L11.6766788,8.00901818 L11.2152727,8.00901818 L10.9702303,9.45093333 C10.9558061,9.5086303 10.9558061,9.55207273 10.9558061,9.59517576 C10.9558061,9.76826667 11.0423515,9.84038788 11.2585455,9.84038788 C11.3595152,9.84038788 11.4458909,9.84038788 11.5035879,9.81153939 L11.3883636,10.5753455 Z M7.91347879,8.25406061 C7.91347879,8.68678788 8.11524848,8.98935758 8.59107879,9.22014545 C8.96593939,9.39323636 9.02363636,9.45076364 9.02363636,9.59500606 C9.02363636,9.8113697 8.8649697,9.9121697 8.50453333,9.9121697 C8.23064242,9.9121697 7.9854303,9.86906667 7.69711515,9.78252121 L7.56729697,10.5753455 L7.6105697,10.5899394 L7.76923636,10.6187879 C7.82676364,10.6330424 7.89905455,10.6476364 8.01427879,10.6476364 C8.21604848,10.6764848 8.38913939,10.6764848 8.50453333,10.6764848 C9.45602424,10.6764848 9.90317576,10.3158788 9.90317576,9.52305455 C9.90317576,9.04705455 9.7158303,8.77299394 9.26884848,8.5569697 C8.87956364,8.38387879 8.83629091,8.34077576 8.83629091,8.18210909 C8.83629091,7.99476364 8.99495758,7.90821818 9.28327273,7.90821818 C9.45636364,7.90821818 9.70140606,7.92264242 9.93219394,7.95149091 L10.0618424,7.15849697 C9.83122424,7.11522424 9.47078788,7.08637576 9.26884848,7.08637576 C8.25949091,7.08620606 7.89905455,7.61973333 7.91347879,8.25406061 Z M26.4269091,10.6187879 L25.5760485,10.6187879 L25.6194909,10.2870303 C25.3742788,10.546497 25.1146424,10.6618909 24.7828848,10.6618909 C24.1197091,10.6618909 23.6871515,10.0998545 23.6871515,9.23473939 C23.6871515,8.08113939 24.3649212,7.1006303 25.1577455,7.1006303 C25.5183515,7.1006303 25.7778182,7.25929697 26.0232,7.57646061 L26.2249697,6.36533333 L27.1189333,6.36533333 L26.4269091,10.6187879 Z M25.1002182,9.8113697 C25.5185212,9.8113697 25.8068364,9.32111515 25.8068364,8.64334545 C25.8068364,8.19636364 25.648,7.96557576 25.3308364,7.96557576 C24.9271273,7.96557576 24.6245576,8.44140606 24.6245576,9.11917576 C24.6245576,9.58075152 24.7830545,9.8113697 25.1002182,9.8113697 Z M14.1566303,10.546497 C13.839297,10.6476364 13.5509818,10.6907394 13.2193939,10.6907394 C12.2100364,10.6907394 11.6909333,10.1573818 11.6909333,9.1336 C11.6909333,7.95132121 12.3542788,7.07178182 13.2626667,7.07178182 C14.0123879,7.07178182 14.4880485,7.56203636 14.4880485,8.32618182 C14.4880485,8.58581818 14.4592,8.8310303 14.3726545,9.19129697 L12.5850667,9.19129697 C12.5706424,9.23473939 12.5706424,9.26358788 12.5706424,9.29243636 C12.5706424,9.69614545 12.844703,9.89791515 13.3636364,9.89791515 C13.6952242,9.89791515 13.9835394,9.84021818 14.3008727,9.68155152 L14.1566303,10.546497 Z M13.6519515,8.48467879 L13.6519515,8.31175758 C13.6519515,8.02344242 13.4932848,7.86477576 13.2193939,7.86477576 C12.9310788,7.86477576 12.7291394,8.08113939 12.6425939,8.48467879 L13.6519515,8.48467879 Z M4.46744242,10.6187879 L3.57347879,10.6187879 L4.09258182,7.34567273 L2.92472727,10.6187879 L2.30465455,10.6187879 L2.23253333,7.37452121 L1.68475152,10.6187879 L0.848484848,10.6187879 L1.55493333,6.36533333 L2.85260606,6.36533333 L2.89587879,9.00395152 L3.76082424,6.36533333 L5.17389091,6.36533333 L4.46744242,10.6187879 Z M6.70235152,9.07590303 C6.61580606,9.07590303 6.57253333,9.06164848 6.50041212,9.06164848 C5.99573333,9.06164848 5.73626667,9.24899394 5.73626667,9.59500606 C5.73626667,9.8113697 5.85166061,9.94101818 6.0534303,9.94101818 C6.42829091,9.94101818 6.68792727,9.59500606 6.70235152,9.07590303 Z M7.36552727,10.6187879 L6.61563636,10.6187879 L6.63006061,10.2581818 C6.39927273,10.546497 6.09653333,10.6764848 5.6784,10.6764848 C5.18814545,10.6764848 4.85655758,10.3016242 4.85655758,9.73924848 C4.85655758,8.88872727 5.43318788,8.39847273 6.44254545,8.39847273 C6.54351515,8.39847273 6.67333333,8.41289697 6.81740606,8.42715152 C6.84625455,8.31192727 6.84625455,8.26865455 6.84625455,8.21095758 C6.84625455,7.98033939 6.68758788,7.89379394 6.26945455,7.89379394 C6.00998788,7.89379394 5.72150303,7.92264242 5.51973333,7.98033939 L5.38991515,8.02361212 L5.3033697,8.03803636 L5.43318788,7.25946667 C5.8801697,7.12964848 6.18290909,7.08637576 6.51466667,7.08637576 C7.29323636,7.08637576 7.7113697,7.43238788 7.7113697,8.09556364 C7.7113697,8.26865455 7.69694545,8.39847273 7.63924848,8.78775758 L7.43730909,10.0134788 L7.40846061,10.229503 L7.39403636,10.4025939 L7.37961212,10.5325818 L7.36552727,10.6187879 Z M20.9767515,9.07590303 C20.8756121,9.07590303 20.8325091,9.06164848 20.7749818,9.06164848 C20.2558788,9.06164848 19.9960727,9.24899394 19.9960727,9.59500606 C19.9960727,9.8113697 20.1260606,9.94101818 20.3278303,9.94101818 C20.6884364,9.94101818 20.9621576,9.59500606 20.9767515,9.07590303 Z M21.6399273,10.6187879 L20.8902061,10.6187879 L20.9044606,10.2581818 C20.6738424,10.546497 20.371103,10.6764848 19.9529697,10.6764848 C19.4627152,10.6764848 19.1309576,10.3016242 19.1309576,9.73924848 C19.1309576,8.88872727 19.7075879,8.39847273 20.7169455,8.39847273 C20.8180848,8.39847273 20.947903,8.41289697 21.0775515,8.42715152 C21.1064,8.31192727 21.1209939,8.26865455 21.1209939,8.21095758 C21.1209939,7.98033939 20.9621576,7.89379394 20.5443636,7.89379394 C20.2845576,7.89379394 19.9819879,7.92264242 19.7800485,7.98033939 L19.6646545,8.02361212 L19.5781091,8.03803636 L19.7077576,7.25946667 C20.1549091,7.12964848 20.4574788,7.08637576 20.7892364,7.08637576 C21.5678061,7.08637576 21.9715152,7.43238788 21.9715152,8.09556364 C21.9715152,8.26865455 21.9715152,8.39847273 21.8995636,8.78775758 L21.7120485,10.0134788 L21.6832,10.229503 L21.6543515,10.4025939 L21.640097,10.5325818 L21.640097,10.6187879 L21.6399273,10.6187879 Z M24.0621818,7.12947879 L23.9756364,7.12947879 C23.6730667,7.12947879 23.4999758,7.27372121 23.2259152,7.69168485 L23.3124606,7.15815758 L22.4904485,7.15815758 L21.942497,10.6186182 L22.8364606,10.6186182 C23.1682182,8.49910303 23.2547636,8.13866667 23.6873212,8.13866667 L23.7450182,8.13866667 C23.8315636,7.72053333 23.9467879,7.41762424 24.0910303,7.14373333 L24.0621818,7.12947879 Z" fill="#FFFFFF"></path>
                </g>
            </g>
        </g>
    </g>
</svg>