<?xml version="1.0" encoding="utf-8"?>
<!-- Generator: Adobe Illustrator 22.1.0, SVG Export Plug-In . SVG Version: 6.00 Build 0)  -->
<svg version="1.1" id="Calque_1" xmlns="http://www.w3.org/2000/svg" xmlns:xlink="http://www.w3.org/1999/xlink" x="0px" y="0px"
	 viewBox="0 0 1000 1000" style="enable-background:new 0 0 1000 1000;" xml:space="preserve">
<style type="text/css">
	.st0{fill:url(#SVGID_1_);}
	.st1{fill:url(#SVGID_2_);}
	.st2{fill:url(#SVGID_3_);}
	.st3{fill:url(#SVGID_4_);}
	.st4{fill:#FFFFFF;}
	.st5{fill:#29ABE2;}
</style>
<linearGradient id="SVGID_1_" gradientUnits="userSpaceOnUse" x1="325.4095" y1="997.8313" x2="753.1947" y2="256.8857">
	<stop  offset="0" style="stop-color:#2E3192"/>
	<stop  offset="0.2017" style="stop-color:#2A5DA9"/>
	<stop  offset="0.7549" style="stop-color:#1FD1E6"/>
	<stop  offset="1" style="stop-color:#1BFFFF"/>
</linearGradient>
<path class="st0" d="M949.6,755.3l-677,209.3c-3.9,1.2-8.1-1-9.3-4.9L123,505.8l691.2-213.7L954.5,746
	C955.8,749.9,953.6,754.1,949.6,755.3z"/>
<linearGradient id="SVGID_2_" gradientUnits="userSpaceOnUse" x1="386.6083" y1="423.8681" x2="386.6083" y2="396.4497" gradientTransform="matrix(3.5189 -1.088 0.2954 0.9554 -1008.1077 443.586)">
	<stop  offset="0" style="stop-color:#FFFFFF;stop-opacity:0"/>
	<stop  offset="0.1631" style="stop-color:#FCFBFC;stop-opacity:0.1631"/>
	<stop  offset="0.3077" style="stop-color:#F1F1F1;stop-opacity:0.3077"/>
	<stop  offset="0.4453" style="stop-color:#DFDFDF;stop-opacity:0.4453"/>
	<stop  offset="0.5785" style="stop-color:#C6C5C5;stop-opacity:0.5785"/>
	<stop  offset="0.7087" style="stop-color:#A5A4A5;stop-opacity:0.7087"/>
	<stop  offset="0.8365" style="stop-color:#7E7C7C;stop-opacity:0.8365"/>
	<stop  offset="0.9602" style="stop-color:#504D4E;stop-opacity:0.9602"/>
	<stop  offset="1" style="stop-color:#3F3C3D"/>
</linearGradient>
<polygon class="st1" points="823.2,321.1 131.9,534.8 123.8,508.6 815.1,294.9 "/>
<g>
	<linearGradient id="SVGID_3_" gradientUnits="userSpaceOnUse" x1="93.0975" y1="367.5061" x2="824.6498" y2="367.5061">
		<stop  offset="0" style="stop-color:#2E3192"/>
		<stop  offset="0.1379" style="stop-color:#2C479E"/>
		<stop  offset="0.4251" style="stop-color:#277FBB"/>
		<stop  offset="0.8337" style="stop-color:#1FD9EB"/>
		<stop  offset="1" style="stop-color:#1BFFFF"/>
	</linearGradient>
	<path class="st2" d="M797.5,225.3L99.1,441.2c-4.5,1.4-7.1,6.2-5.7,10.7l16.1,52c1.4,4.5,6.2,7.1,10.7,5.7l698.3-215.9
		c4.5-1.4,7.1-6.2,5.7-10.7l-16.1-52C806.8,226.5,802,223.9,797.5,225.3z"/>
	<linearGradient id="SVGID_4_" gradientUnits="userSpaceOnUse" x1="70.6105" y1="234.9989" x2="763.701" y2="234.9989">
		<stop  offset="0" style="stop-color:#2E3192"/>
		<stop  offset="0.1379" style="stop-color:#2C479E"/>
		<stop  offset="0.4251" style="stop-color:#277FBB"/>
		<stop  offset="0.8337" style="stop-color:#1FD9EB"/>
		<stop  offset="1" style="stop-color:#1BFFFF"/>
	</linearGradient>
	<path class="st3" d="M96.3,429.1c2.2,4.2,7.3,5.9,11.5,3.7L759,100.9c4.2-2.2,5.9-7.3,3.7-11.5L738,40.9c-2.2-4.2-7.3-5.9-11.5-3.7
		L75.3,369.1c-4.2,2.2-5.9,7.3-3.7,11.5L96.3,429.1z"/>
</g>
<g>
	<polygon class="st4" points="579.1,292.9 551.9,376.2 624.6,353.7 651.9,270.4 	"/>
	<polygon class="st4" points="461.7,329.2 434.5,412.5 507.2,390 534.5,306.7 	"/>
	<polygon class="st4" points="348.2,364.3 321,447.6 393.7,425.1 420.9,341.8 	"/>
	<polygon class="st4" points="696.5,256.6 669.3,339.9 742,317.4 769.3,234.1 	"/>
	<polygon class="st4" points="555.4,204.7 477.8,163.9 545.6,129.3 623.2,170.1 	"/>
	<polygon class="st4" points="445.9,260.5 368.3,219.7 436.1,185.1 513.8,225.9 	"/>
	<polygon class="st4" points="340.1,314.5 262.4,273.7 330.3,239.1 407.9,279.9 	"/>
	<polygon class="st4" points="664.9,148.9 587.3,108.1 655.1,73.5 732.7,114.3 	"/>
</g>
<path class="st5" d="M274.3,396l-116.5-57.9c-2.9-1.4-6.3-1.7-9.4-0.8l-62.6,19.3c-6.7,2.1-10.4,9.1-8.3,15.8l35.7,115.5
	c2.1,6.7,9.1,10.4,15.8,8.3l152.6-47.2c6.7-2.1,10.4-9.1,8.3-15.8l-9.2-29.8C279.7,400.3,277.4,397.6,274.3,396z"/>
<g>
	<path class="st4" d="M113.3,374.1c-5.5,1.8-8.5,7.8-6.7,13.3c1.8,5.5,7.8,8.5,13.4,6.7c5.5-1.8,8.5-7.8,6.7-13.3
		C124.8,375.2,118.9,372.2,113.3,374.1z"/>
	<path class="st4" d="M138.1,454.1c-5.5,1.8-8.5,7.8-6.7,13.3c1.8,5.5,7.8,8.5,13.4,6.7c5.5-1.8,8.5-7.8,6.7-13.3
		C149.6,455.3,143.6,452.3,138.1,454.1z"/>
	<path class="st4" d="M246,420.7c-5.5,1.8-8.5,7.8-6.7,13.3c1.8,5.5,7.8,8.5,13.4,6.7c5.5-1.8,8.5-7.8,6.7-13.3
		C257.5,421.9,251.6,418.9,246,420.7z"/>
</g>
<path class="st4" d="M401,588.2l37.6-23.9l47.9,75.3l22.8-120.2l49.4-31.4l-27.2,122.8l147.2,57.5l-49.1,31.2l-107-44l-6.5,30.3
	l38.9,61.1L517.2,771L401,588.2z"/>
</svg>
