<?xml version="1.0" encoding="UTF-8"?>
<svg width="28px" height="10px" viewBox="0 0 28 10" version="1.1" xmlns="http://www.w3.org/2000/svg" xmlns:xlink="http://www.w3.org/1999/xlink">
    <!-- Generator: Sketch 51.3 (57544) - http://www.bohemiancoding.com/sketch -->
    <title>Visa</title>
    <desc>Created with Sketch.</desc>
    <defs></defs>
    <g id="Desktop-Flinto" stroke="none" stroke-width="1" fill="none" fill-rule="evenodd">
        <g id="Pay" transform="translate(-647.000000, -350.000000)" fill-rule="nonzero">
            <g id="Visa" transform="translate(645.000000, 339.000000)">
                <g transform="translate(2.000000, 11.000000)" id="Shape">
                    <path d="M12.0654333,8.8788 L9.7944,8.8788 L11.2137667,0.155866667 L13.4850333,0.155866667 L12.0654333,8.8788 Z M7.88386667,0.155866667 L5.71876667,6.15556667 L5.46256667,4.8636 L5.4628,4.86406667 L4.69863333,0.941266667 C4.69863333,0.941266667 4.60623333,0.155866667 3.62133333,0.155866667 L0.042,0.155866667 L0,0.303566667 C0,0.303566667 1.09456667,0.5313 2.37556667,1.3006 L4.34863333,8.87903333 L6.71486667,8.87903333 L10.3280333,0.155866667 L7.88386667,0.155866667 Z M25.7467,8.8788 L27.832,8.8788 L26.0138667,0.155633333 L24.1882667,0.155633333 C23.3452333,0.155633333 23.1399,0.8057 23.1399,0.8057 L19.7528333,8.8788 L22.1202333,8.8788 L22.5936667,7.5831 L25.4807,7.5831 L25.7467,8.8788 Z M23.2477,5.7932 L24.4409667,2.52886667 L25.1122667,5.7932 L23.2477,5.7932 Z M19.9304,2.25353333 L20.2545,0.380333333 C20.2545,0.380333333 19.2544333,0 18.2119,0 C17.0849,0 14.4085667,0.492566667 14.4085667,2.88773333 C14.4085667,5.14126667 17.5497,5.16926667 17.5497,6.35296667 C17.5497,7.53666667 14.7322,7.32456667 13.8023667,6.57813333 L13.4647333,8.53673333 C13.4647333,8.53673333 14.4788,9.0293 16.0281333,9.0293 C17.5779333,9.0293 19.9159333,8.22686667 19.9159333,6.04286667 C19.9159333,3.77486667 16.7465667,3.5637 16.7465667,2.57763333 C16.7468,1.59133333 18.9585667,1.71803333 19.9304,2.25353333 Z" fill="#2566AF"></path>
                    <path d="M5.4628,4.86383333 L4.69863333,0.941033333 C4.69863333,0.941033333 4.60623333,0.155633333 3.62133333,0.155633333 L0.042,0.155633333 L0,0.303333333 C0,0.303333333 1.72036667,0.659866667 3.3705,1.9957 C4.9483,3.2725 5.4628,4.86383333 5.4628,4.86383333 Z" fill="#E6A540"></path>
                </g>
            </g>
        </g>
    </g>
</svg>