<?xml version="1.0" encoding="UTF-8"?>
<svg width="32px" height="32px" viewBox="0 0 32 32" version="1.1" xmlns="http://www.w3.org/2000/svg" xmlns:xlink="http://www.w3.org/1999/xlink">
    <!-- Generator: Sketch 51.3 (57544) - http://www.bohemiancoding.com/sketch -->
    <title>MasterCard Selected</title>
    <desc>Created with Sketch.</desc>
    <defs>
        <linearGradient x1="0%" y1="100%" x2="100%" y2="0%" id="linearGradient-1">
            <stop stop-color="#2E3192" offset="0%"></stop>
            <stop stop-color="#1BFFFF" offset="100%"></stop>
        </linearGradient>
    </defs>
    <g id="Desktop-Flinto" stroke="none" stroke-width="1" fill="none" fill-rule="evenodd" opacity="0">
        <g id="Pay" transform="translate(-709.000000, -339.000000)">
            <g id="MasterCard-Selected" transform="translate(709.000000, 339.000000)">
                <rect id="Rectangle-15-Copy" fill="url(#linearGradient-1)" x="0" y="0" width="32" height="32"></rect>
                <path d="M27.6709652,18.6583044 L27.7146119,18.3252289 C27.4684897,18.5857488 27.2078564,18.7014977 26.8748942,18.7014977 C26.2091966,18.7014977 25.7749967,18.1373779 25.7749967,17.2690914 C25.7749967,16.1112627 26.4553188,15.127114 27.251163,15.127114 C27.6130341,15.127114 27.8734407,15.2862829 28.1197896,15.6046206 L28.3222651,14.3889741 L29.2195738,14.3889741 L28.5249673,18.6583044 L27.6709652,18.6583044 Z M24.9212213,18.658191 L24.0239126,18.658191 L24.5739747,15.1848184 L25.399068,15.1848184 L25.3121146,15.7202561 C25.587259,15.300794 25.760939,15.1560229 26.0646522,15.1560229 L26.1514922,15.1560229 L26.1805144,15.1703073 C26.03563,15.445225 25.9201079,15.7492783 25.8331545,16.1689671 L25.7752234,16.1689671 C25.3410235,16.1689671 25.2542969,16.5307248 24.9212213,18.658191 Z M23.7926416,18.0507646 L23.7636194,18.2675245 L23.7347105,18.4413178 L23.7204261,18.5718045 L23.7204261,18.6583044 L23.7201994,18.6583044 L22.9677751,18.6583044 L22.9820595,18.29632 C22.7506751,18.5857488 22.4467352,18.7162355 22.0270464,18.7162355 C21.5349154,18.7162355 21.2019532,18.3399667 21.2019532,17.7755068 C21.2019532,16.9218448 21.7806975,16.4297138 22.793755,16.4297138 C22.8953329,16.4297138 23.0255929,16.4442249 23.1558528,16.4585093 C23.1847617,16.3428738 23.1993862,16.2994538 23.1993862,16.2415227 C23.1993862,16.010025 23.0398772,15.923185 22.6206419,15.923185 C22.3597818,15.923185 22.056182,15.9520939 21.8534798,16.010025 L21.7376176,16.053445 L21.6507776,16.0679561 L21.7809242,15.2865096 C22.2297486,15.1561363 22.5334618,15.1127163 22.866424,15.1127163 C23.6478705,15.1127163 24.0530482,15.4600762 24.0530482,16.1256605 C24.0530482,16.2994538 24.0530482,16.4297138 23.9808327,16.8204937 L23.7926416,18.0507646 Z M20.9270355,18.6146577 C20.5940733,18.7014977 20.3770867,18.7451444 20.1309645,18.7451444 C19.1470425,18.7451444 18.5390492,18.0359134 18.5390492,16.8928226 C18.5390492,15.3731228 19.3784269,14.3021342 20.5795622,14.3021342 C20.738731,14.3021342 20.8832754,14.3166453 20.9990242,14.3455541 L21.3610087,14.4325075 C21.4769842,14.4759275 21.5060065,14.4903252 21.5928465,14.5191207 L21.4333375,15.4454517 C21.1151132,15.2861695 20.8835021,15.213954 20.6229821,15.213954 C19.9427734,15.213954 19.4652668,15.8795383 19.4652668,16.820267 C19.4652668,17.4715669 19.7837179,17.8622334 20.3192689,17.8622334 C20.5361422,17.8622334 20.7967755,17.7899046 21.0862043,17.6453602 L20.9270355,18.6146577 Z M18.2932671,16.1689671 C17.8590672,16.1689671 17.7723406,16.5307248 17.4396052,18.658191 L16.5276719,18.658191 L17.0917917,15.1848184 L17.916885,15.1848184 L17.8299316,15.7202561 C18.1050761,15.300794 18.278756,15.1560229 18.5824692,15.1560229 L18.6694226,15.1560229 L18.6984448,15.1703073 C18.5536737,15.445225 18.4380382,15.7492783 18.3511983,16.1689671 L18.2932671,16.1689671 Z M7.75746833,17.630679 C7.75746833,17.2834325 8.01798828,17.0953547 8.52451707,17.0953547 C8.59684594,17.0953547 8.64026593,17.1096391 8.72721928,17.1096391 C8.71270816,17.630679 8.45207484,17.9779256 8.0759194,17.9779256 C7.87321718,17.9779256 7.75746833,17.8478924 7.75746833,17.630679 Z M15.7025447,16.3426697 L15.7025447,16.5162363 L14.6894871,16.5162363 C14.7763271,16.111172 14.9790293,15.8939587 15.2684582,15.8939587 C15.5433759,15.8939587 15.7025447,16.0533543 15.7025447,16.3426697 Z M22.0703077,17.630679 C22.0703077,17.2834325 22.3310544,17.0953547 22.8520943,17.0953547 C22.9097987,17.0953547 22.9531053,17.1096391 23.0546831,17.1096391 C23.0399453,17.630679 22.7652543,17.9779256 22.4032699,17.9779256 C22.200681,17.9779256 22.0703077,17.8478924 22.0703077,17.630679 Z M27.4248543,15.9952078 C27.7433054,15.9952078 27.902701,16.2268188 27.902701,16.6755299 C27.902701,17.3557387 27.6132722,17.8478697 27.1933566,17.8478697 C26.8750189,17.8478697 26.7159634,17.616372 26.7159634,17.1531498 C26.7159634,16.4728277 27.0196767,15.9952078 27.4248543,15.9952078 Z M15.4132633,17.934789 C15.7459987,17.934789 16.0354275,17.8768579 16.353992,17.7175757 L16.2091075,18.5857488 C15.8906564,18.6872133 15.6012276,18.7305199 15.2684922,18.7305199 C14.2553212,18.7305199 13.7342813,18.1951956 13.7342813,17.1676269 C13.7342813,15.9808894 14.4000923,15.0980918 15.3117988,15.0980918 C16.0643364,15.0980918 16.541843,15.5902228 16.541843,16.3571582 C16.541843,16.6177915 16.5128207,16.8639137 16.4259807,17.2254447 L14.6317034,17.2254447 C14.6171923,17.2690914 14.6171923,17.2980003 14.6171923,17.3270225 C14.6171923,17.7322002 14.8923367,17.934789 15.4132633,17.934789 Z M13.3003081,17.8769713 C13.4016592,17.8769713 13.4882725,17.8769713 13.5462036,17.8480624 L13.4306815,18.6146577 C13.1846726,18.7014977 12.9819704,18.7305199 12.7794949,18.7305199 C12.3163861,18.7305199 12.0557528,18.4701133 12.0557528,17.9636979 C12.0557528,17.8768579 12.0702639,17.7611091 12.0847751,17.6596446 L12.1425928,17.3122847 L12.1860128,17.0375937 L12.5766794,14.6640052 L13.4739881,14.6640052 L13.3727504,15.1849318 L13.8358591,15.1849318 L13.7198836,16.0388205 L13.2568881,16.0388205 L13.0109927,17.486078 C12.9964815,17.5440091 12.9964815,17.5876558 12.9964815,17.6308491 C12.9964815,17.8046424 13.0833215,17.8769713 13.3003081,17.8769713 Z M11.3032152,16.5888826 C11.7518129,16.8056425 11.9398906,17.0806736 11.9398906,17.5585202 C11.9398906,18.3542511 11.4910662,18.7162355 10.5360531,18.7162355 C10.4203042,18.7162355 10.2465109,18.7162355 10.0440354,18.6872133 C9.92828656,18.6872133 9.85573096,18.6725888 9.79802658,18.6583044 L9.63874437,18.6293955 L9.59543774,18.6146577 L9.72569772,17.8189268 C10.0150132,17.9057668 10.2611354,17.9490734 10.5360531,17.9490734 C10.8979241,17.9490734 11.057093,17.8478357 11.057093,17.6307357 C11.057093,17.4859646 10.9991619,17.4281469 10.6228931,17.2544669 C10.1452732,17.0228558 9.94279768,16.7191426 9.94279768,16.284716 C9.92828656,15.6480406 10.2901576,15.1126029 11.3032152,15.1127163 C11.5059174,15.1127163 11.8677885,15.1417385 12.0991728,15.1851585 L11.9690262,15.9811161 C11.7374151,15.9520939 11.4914063,15.9375827 11.3177263,15.9375827 C11.0282975,15.9375827 10.8690153,16.0245361 10.8690153,16.2125005 C10.8690153,16.3717827 10.9125486,16.4150893 11.3032152,16.5888826 Z M9.43581542,18.2675245 L9.42141767,18.4413178 L9.40690655,18.5718045 L9.39273553,18.6583044 L8.64019791,18.6583044 L8.65470903,18.29632 C8.42298458,18.5857488 8.11904463,18.7162355 7.69946919,18.7162355 C7.20733816,18.7162355 6.87460271,18.3399667 6.87460271,17.7755068 C6.87460271,16.9218448 7.45334699,16.4297138 8.46651794,16.4297138 C8.56775568,16.4297138 8.69812902,16.4442249 8.84267338,16.4585093 C8.87169562,16.3428738 8.87169562,16.2994538 8.87169562,16.2415227 C8.87169562,16.010025 8.7124134,15.923185 8.29261123,15.923185 C8.03231801,15.923185 7.74266245,15.9520939 7.54018698,16.010025 L7.40981363,16.053445 L7.32308701,16.0679561 L7.45334699,15.2865096 C7.90194467,15.1561363 8.20588462,15.1127163 8.53873344,15.1127163 C9.3202933,15.1127163 9.7399821,15.4600762 9.7399821,16.1256605 C9.7399821,16.2994538 9.72547098,16.4297138 9.66753987,16.8204937 L9.46483766,18.0507646 L9.43581542,18.2675245 Z M5.58662742,18.6583044 L6.10766733,15.3730095 L4.93555427,18.6583044 L4.31316325,18.6583044 L4.24072102,15.4019184 L3.69099898,18.6583044 L2.851508,18.6583044 L3.56062563,14.3889741 L4.86311204,14.3889741 L4.90653203,17.0374803 L5.77470514,14.3889741 L7.19305377,14.3889741 L6.48393614,18.6583044 L5.58662742,18.6583044 Z M21.6208484,8 C19.4651535,8 17.4833653,8.82441302 16.0073122,10.184037 C14.5169749,8.83881077 12.5492443,8 10.379265,8 C5.76268812,8 2,11.777426 2,16.4371961 C2,21.0829085 5.76268812,24.8601078 10.379265,24.8601078 C12.5492443,24.8601078 14.5168615,24.0355814 16.0073122,22.6761842 C17.4834786,24.0355814 19.4651535,24.8601078 21.6208484,24.8601078 C26.251823,24.8601078 30,21.0829085 30,16.4371961 C30,11.777426 26.251823,8 21.6208484,8 Z" id="Fill-7" fill="#F8F8F8"></path>
            </g>
        </g>
    </g>
</svg>