<?xml version="1.0" encoding="UTF-8"?>
<svg width="237px" height="44px" viewBox="0 0 237 44" version="1.1" xmlns="http://www.w3.org/2000/svg" xmlns:xlink="http://www.w3.org/1999/xlink">
    <!-- Generator: Sketch 52.3 (67297) - http://www.bohemiancoding.com/sketch -->
    <title>Logo/Text/White/44</title>
    <desc>Created with Sketch.</desc>
    <defs>
        <linearGradient x1="50.5790311%" y1="55.4592603%" x2="49.4367441%" y2="44.6899381%" id="linearGradient-1">
            <stop stop-color="#FFFFFF" stop-opacity="0" offset="0%"></stop>
            <stop stop-color="#3F3B3D" stop-opacity="0.6" offset="100%"></stop>
        </linearGradient>
        <path d="M9.63670179,17.0278187 L4.12455772,14.2863919 C3.98690672,14.2179213 3.82819876,14.2050978 3.68136788,14.2504768 L0.720049639,15.1660523 C0.404337209,15.2636714 0.227506072,15.5987373 0.325125188,15.9144497 L2.01559679,21.381972 C2.11321591,21.6976371 2.44828181,21.8744682 2.76399424,21.7768491 L9.98284034,19.5449061 C10.2985528,19.447287 10.4753839,19.112221 10.3777648,18.7965086 L9.9419094,17.386828 C9.89354937,17.2304387 9.78324876,17.1007373 9.63670179,17.0278187" id="path-2"></path>
        <filter x="-49.2%" y="-78.8%" width="238.0%" height="284.0%" filterUnits="objectBoundingBox" id="filter-3">
            <feOffset dx="2" dy="1" in="SourceAlpha" result="shadowOffsetOuter1"></feOffset>
            <feGaussianBlur stdDeviation="2" in="shadowOffsetOuter1" result="shadowBlurOuter1"></feGaussianBlur>
            <feColorMatrix values="0 0 0 0 0   0 0 0 0 0   0 0 0 0 0  0 0 0 0.5 0" type="matrix" in="shadowBlurOuter1"></feColorMatrix>
        </filter>
        <linearGradient x1="37.169655%" y1="97.2099213%" x2="62.4962927%" y2="3.03463995%" id="linearGradient-4">
            <stop stop-color="#2D3191" offset="0%"></stop>
            <stop stop-color="#1AFFFF" offset="100%"></stop>
        </linearGradient>
    </defs>
    <g id="Logo/Text/White/44" stroke="none" stroke-width="1" fill="none" fill-rule="evenodd">
        <path d="M41.5948013,34.0261081 L9.55836517,43.931207 C9.37273269,43.988605 9.17574366,43.8846924 9.1183457,43.69906 L2.47840036,22.223233 L35.1870031,12.110309 L41.8269484,33.5860886 C41.8843463,33.7717211 41.7803865,33.9687101 41.5948013,34.0261081" id="Fill-1" fill="#FFFFFF"></path>
        <polygon id="Fill-3" fill="url(#linearGradient-1)" points="35.6102621 13.4792999 2.90170676 23.5922713 2.5184701 22.3527498 35.2270255 12.2397785"></polygon>
        <path d="M1.21461373,18.5930416 L0.0443673102,16.2972179 C-0.0574631977,16.0974844 0.0219380999,15.8530344 0.221718957,15.7511566 L31.0357158,0.0443685327 C31.2354967,-0.0574619753 31.4799467,0.0219393223 31.5817299,0.22167286 L32.7520236,2.51749655 C32.8538068,2.71727741 32.7744055,2.96172741 32.574672,3.06355792 L1.7606751,18.7703933 C1.56089424,18.8721764 1.31639692,18.7927752 1.21461373,18.5930416 Z M34.393345,8.95049693 C34.6074635,8.88429764 34.8346894,9.00420401 34.900936,9.21832253 L35.6621569,11.6804725 C35.7284035,11.8946384 35.6084971,12.1218643 35.3943313,12.1880635 L2.35108857,22.4044742 C2.13701737,22.4706735 1.90979149,22.3507672 1.84354488,22.1366487 L1.08227666,19.6744513 C1.01607736,19.4603328 1.13598373,19.2331069 1.35010225,19.1669076 L34.393345,8.95049693 Z" id="Fill-8" fill="#FFFFFF"></path>
        <path d="M28.1212198,5.33274574 L24.4474192,3.40260335 L27.6564051,1.76692716 L31.330111,3.69706955 L28.1212198,5.33274574 Z M24.0631557,12.1452256 L27.5042414,11.081305 L26.2153662,15.0260543 L22.7743279,16.0899749 L24.0631557,12.1452256 Z M18.5081406,13.862759 L21.949179,12.7988384 L20.6603511,16.7435403 L17.2193128,17.8074609 L18.5081406,13.862759 Z M13.1361129,15.5236846 L16.5771985,14.459764 L15.2883707,18.4045132 L11.847285,19.4684338 L13.1361129,15.5236846 Z M29.6181945,10.427716 L33.0592801,9.36379536 L31.770405,13.3084972 L28.3294139,14.3724178 L29.6181945,10.427716 Z M22.9409002,7.97332154 L19.267147,6.04317915 L22.4760856,4.40750296 L26.1498388,6.33759802 L22.9409002,7.97332154 Z M17.760576,10.6138737 L14.0868227,8.68373129 L17.2957614,7.04805509 L20.9695146,8.97819748 L17.760576,10.6138737 Z M12.7509314,13.1674345 L9.07717816,11.2372922 L12.2861168,9.60161596 L15.95987,11.531711 L12.7509314,13.1674345 Z" id="Fill-25" fill="#29ABE2"></path>
        <g id="Fill-27">
            <use fill="black" fill-opacity="1" filter="url(#filter-3)" xlink:href="#path-2"></use>
            <use fill="#FFFFFF" fill-rule="evenodd" xlink:href="#path-2"></use>
        </g>
        <path d="M8.29957069,18.1966266 C8.5624751,18.1100328 8.84407053,18.2525104 8.93151606,18.5137113 C9.01773129,18.7753854 8.87530107,19.0569808 8.6140055,19.1444264 C8.35242602,19.2306416 8.0696003,19.0885426 7.98215477,18.8272944 C7.89551367,18.5644373 8.03803852,18.2828418 8.29957069,18.1966266 Z M2.02113785,15.987586 C2.28404227,15.9009922 2.56563769,16.0434697 2.65308322,16.3046707 C2.73929845,16.5663448 2.59686824,16.8479402 2.33557267,16.9353857 C2.07399318,17.021601 1.79116746,16.879502 1.70372194,16.6182537 C1.61708083,16.3553966 1.75960569,16.0738012 2.02113785,15.987586 Z M3.19235431,19.7756951 C3.45525872,19.6891013 3.73685415,19.8315788 3.82429968,20.0927798 C3.91051491,20.3544539 3.76808469,20.6360493 3.50678912,20.7234948 C3.24525696,20.8097101 2.96243124,20.6676111 2.87493839,20.4063628 C2.78829729,20.1435057 2.93082214,19.8619103 3.19235431,19.7756951 Z" id="Fill-33" fill="#29ABE2"></path>
        <polygon id="Fill-36" fill="url(#linearGradient-4)" points="20.1909844 23.0586548 19.7466589 28.8297758 17.1035137 25.5371299 15.4607396 26.855958 21.8759197 34.8472869 23.5185991 33.5286008 21.3729659 30.8557392 21.522494 29.3946228 26.7849357 30.9063705 28.9321303 29.1829649 21.7077479 27.2457247 22.3486366 21.3265425"></polygon>
        <path d="M231.542712,21.7504754 C231.542712,20.327872 231.352678,19.2020315 230.9737,18.3718159 C230.594152,17.5421694 230.001195,17.1270616 229.195445,17.1270616 C228.792001,17.1270616 228.40079,17.3287599 228.021764,17.7316349 C227.642217,18.1350789 227.333837,18.6919065 227.0971,19.4032082 C226.859794,20.1145099 226.74145,20.8969323 226.74145,21.7504754 L231.542712,21.7504754 Z M223.64732,31.5841909 C222.390333,29.6992082 221.762385,27.1919194 221.762385,24.0622297 C221.762385,20.8852211 222.402566,18.3601522 223.682881,16.4868806 C224.963195,14.614178 226.824234,13.6772341 229.266566,13.6772341 C231.589937,13.6772341 233.368191,14.614178 234.601281,16.4868806 C235.83385,18.3601522 236.450704,20.8852211 236.450704,24.0622297 C236.450704,24.2522642 236.415096,24.3884366 236.343975,24.4712211 C236.272855,24.5545746 236.237294,24.6079151 236.237294,24.6312427 L226.74145,24.6312427 C226.74145,26.1728073 226.942626,27.5775832 227.34607,28.8457125 C227.748945,30.1143634 228.365182,30.7483806 229.195445,30.7483806 C230.120109,30.7483806 230.807514,30.214928 231.258182,29.1480228 C231.708329,28.0810703 231.945587,27.5241953 231.969484,27.4764496 L235.739402,28.899053 C235.241462,30.6061392 234.446807,31.9520746 233.356527,32.9356263 C232.265678,33.9197944 230.843075,34.4115703 229.088717,34.4115703 C226.717553,34.4115703 224.903786,33.4691263 223.64732,31.5841909 Z M58.6654703,34.4115797 L54.0420091,21.9994547 L52.0148323,25.520403 L52.0148323,33.9492478 L46.7867978,33.9492478 L46.7867978,7.70234698 L52.0148323,7.27557543 L52.0148323,18.9408384 L58.3453797,7.27557543 L63.8935047,7.27557543 L58.167578,18.3007047 L63.9646254,33.2023858 L58.6654703,34.4115797 Z M66.5248849,11.3655366 L66.5248849,6.20862284 L71.5039496,5.85297198 L71.5039496,11.1521746 L66.5248849,11.3655366 Z M66.4893246,34.1626573 L66.4893246,14.3529849 L71.4683892,13.9262134 L71.4683892,33.7358384 L66.4893246,34.1626573 Z M75.8423448,14.3529991 L80.8214095,13.9262276 L80.8214095,16.4868569 C81.840569,15.5860897 82.8425172,14.8925681 83.8266379,14.4063397 C84.8102371,13.9206328 85.7171681,13.6772578 86.5473362,13.6772578 C87.8038017,13.6772578 88.8290776,14.1340422 89.6237328,15.0464733 C90.417819,15.9595207 90.8151466,17.1864948 90.8151466,18.7274905 L90.8151466,33.7358526 L85.8360819,34.1626716 L85.8360819,20.6124259 C85.8360819,18.8341716 85.2314612,17.9450207 84.0222672,17.9450207 C83.6188233,17.9450207 83.1742716,18.0639819 82.6885647,18.3006716 C82.2023362,18.5379776 81.5799353,18.8819647 80.8214095,19.3320638 L80.8214095,33.7358526 L75.8423448,34.1626716 L75.8423448,14.3529991 Z M103.582444,28.7567927 C103.890301,27.453103 104.044775,25.8526978 104.044775,23.9554823 C104.044775,22.0588832 103.890301,20.458478 103.582444,19.1542668 C103.274017,17.8505772 102.586612,17.1981634 101.519706,17.1981634 C100.452754,17.1981634 99.7770125,17.8150168 99.4924823,19.0475384 C99.2079522,20.2806289 99.0657108,21.7860168 99.0657108,23.5642711 C99.0657108,25.7460168 99.2079522,27.482547 99.4924823,28.7745728 C99.7770125,30.0671203 100.452754,30.7128487 101.519706,30.7128487 C102.586612,30.7128487 103.274017,30.0610039 103.582444,28.7567927 M95.9893142,31.5663918 C94.6967668,29.6697927 94.0510858,27.1446763 94.0510858,23.9910427 C94.0510858,20.861353 94.6912194,18.3601806 95.9715341,16.4868616 C97.2518961,14.6141591 99.1012711,13.6772625 101.519706,13.6772625 C103.914198,13.6772625 105.769689,14.6141591 107.085564,16.4868616 C108.401487,18.3601806 109.059448,20.861353 109.059448,23.9910427 C109.059448,27.1207797 108.401487,29.6403487 107.085564,31.5486116 C105.769689,33.4574909 103.914198,34.4115987 101.519706,34.4115987 C99.1245987,34.4115987 97.2813401,33.4636073 95.9893142,31.5663918 Z M123.107183,34.4115797 L119.052782,24.4534504 L117.416769,26.6228685 L117.416769,33.9492478 L112.437752,33.9492478 L112.437752,7.91575647 L117.416769,7.27557543 L117.416769,20.5056832 L122.502609,13.9262134 L127.908446,13.9262134 L122.2892,21.1458642 L127.517234,32.9178556 L123.107183,34.4115797 Z M136.817455,30.5705978 C137.089752,30.3810849 137.427623,30.0726582 137.831067,29.6458866 L137.831067,24.0977616 C136.6452,24.0977616 135.697162,24.4178522 134.98586,25.0579858 C134.274558,25.6981668 133.918907,26.6939987 133.918907,28.0454815 C133.918907,28.9468177 134.078976,29.6403392 134.399019,30.1260461 C134.71911,30.6122746 135.187037,30.855128 135.803843,30.855128 C136.206718,30.855128 136.544588,30.7606323 136.817455,30.5705978 M131.180429,33.6113866 C130.492502,33.0779341 129.959002,32.3549685 129.579976,31.4419211 C129.200476,30.5294901 129.010963,29.5036453 129.010963,28.365572 C129.010963,25.7815677 129.893998,23.9615892 131.660541,22.9063478 C133.426562,21.851628 135.483752,21.2525547 137.831067,21.1103134 C137.831067,19.8299987 137.747713,18.8819599 137.582097,18.2651065 C137.415959,17.6488694 137.013084,17.3404427 136.372903,17.3404427 C135.82717,17.3404427 135.412631,17.5538047 135.128101,17.9805763 C134.843619,18.4073953 134.665769,18.9530806 134.594649,19.6165892 L129.722265,18.7630461 C129.959002,16.9375677 130.705864,15.6333091 131.962851,14.8508866 C133.219269,14.0684642 134.689097,13.677253 136.372903,13.677253 C138.530136,13.677253 140.148321,14.2463134 141.227506,15.3843392 C142.306123,16.5224599 142.845739,18.0045203 142.845739,19.8299987 L142.845739,30.1793866 C142.845739,31.2941323 143.023541,32.4794297 143.379192,33.7358478 L138.506808,34.1626668 L137.937748,31.7086711 C137.510976,32.4677659 136.882459,33.107947 136.052812,33.6291668 C135.222597,34.1504341 134.369006,34.4115892 133.492136,34.4115892 C132.638593,34.4115892 131.867787,34.1448866 131.180429,33.6113866 Z M148.180142,33.0779293 C146.970948,32.1887784 146.188525,30.9501405 145.832875,29.3613517 L149.709426,28.0810371 C149.803922,28.5317052 149.981724,28.9345802 150.242926,29.290231 C150.788043,30.0726534 151.582176,30.4638647 152.625754,30.4638647 C153.218142,30.4638647 153.787202,30.333856 154.332887,30.0726534 C154.878051,29.8120672 155.15087,29.4091922 155.15087,28.8634595 C155.15087,28.1288302 154.640745,27.5597698 153.621586,27.1563259 L149.424944,25.4492397 C148.310198,24.9751966 147.456607,24.2638948 146.864267,23.3153819 C146.27131,22.3673431 145.975116,21.2053259 145.975116,19.829994 C145.975116,18.5496319 146.28909,17.447119 146.917607,16.5224552 C147.545556,15.5977914 148.375771,14.892606 149.407163,14.4063302 C150.438508,13.9206707 151.546569,13.6772483 152.732482,13.6772483 C154.226206,13.6772483 155.601017,14.1101362 156.857956,14.9753905 C158.114375,15.8411664 158.956301,17.0203474 159.383073,18.5140716 L155.257599,19.7943862 C155.162534,19.3915112 154.996396,18.9886362 154.759659,18.5851922 C154.23787,17.7794422 153.573793,17.3759983 152.768043,17.3759983 C152.175086,17.3759983 151.66553,17.5126922 151.238758,17.7849897 C150.811939,18.057856 150.598577,18.4551836 150.598577,18.9764034 C150.598577,19.5932569 151.179254,20.1622698 152.341271,20.6835371 L155.897732,22.1417009 C157.154198,22.7346578 158.138319,23.4815198 158.849573,24.3823345 C159.560875,25.2836233 159.916525,26.4928647 159.916525,28.0099164 C159.916525,29.3852957 159.584202,30.5528129 158.920741,31.5130371 C158.256663,32.4733086 157.391409,33.1968431 156.324504,33.6825026 C155.257599,34.1682095 154.131189,34.4115845 152.945844,34.4115845 C150.977556,34.4115845 149.389383,33.9670328 148.180142,33.0779293 Z M164.219526,33.0779293 C163.010332,32.1887784 162.22791,30.9501405 161.872259,29.3613517 L165.748811,28.0810371 C165.843306,28.5317052 166.021108,28.9345802 166.282311,29.290231 C166.827427,30.0726534 167.621561,30.4638647 168.665138,30.4638647 C169.257526,30.4638647 169.826587,30.333856 170.372272,30.0726534 C170.917436,29.8120672 171.190255,29.4091922 171.190255,28.8634595 C171.190255,28.1288302 170.68013,27.5597698 169.66097,27.1563259 L165.464328,25.4492397 C164.349582,24.9751966 163.495992,24.2638948 162.903651,23.3153819 C162.310694,22.3673431 162.0145,21.2053259 162.0145,19.829994 C162.0145,18.5496319 162.328475,17.447119 162.956992,16.5224552 C163.58494,15.5977914 164.415156,14.892606 165.446548,14.4063302 C166.477893,13.9206707 167.585953,13.6772483 168.771867,13.6772483 C170.265591,13.6772483 171.640401,14.1101362 172.897341,14.9753905 C174.153759,15.8411664 174.995686,17.0203474 175.422457,18.5140716 L171.296983,19.7943862 C171.201919,19.3915112 171.035781,18.9886362 170.799044,18.5851922 C170.277255,17.7794422 169.613177,17.3759983 168.807427,17.3759983 C168.21447,17.3759983 167.704914,17.5126922 167.278143,17.7849897 C166.851324,18.057856 166.637962,18.4551836 166.637962,18.9764034 C166.637962,19.5932569 167.218638,20.1622698 168.380656,20.6835371 L171.937117,22.1417009 C173.193582,22.7346578 174.177703,23.4815198 174.888957,24.3823345 C175.600259,25.2836233 175.95591,26.4928647 175.95591,28.0099164 C175.95591,29.3852957 175.623587,30.5528129 174.960125,31.5130371 C174.296048,32.4733086 173.430794,33.1968431 172.363888,33.6825026 C171.296983,34.1682095 170.170574,34.4115845 168.985229,34.4115845 C167.01694,34.4115845 165.428768,33.9670328 164.219526,33.0779293 Z M187.869749,21.7504754 C187.869749,20.327872 187.679715,19.2020315 187.300736,18.3718159 C186.921189,17.5421694 186.328232,17.1270616 185.522482,17.1270616 C185.119038,17.1270616 184.727827,17.3287599 184.348801,17.7316349 C183.969253,18.1350789 183.660874,18.6919065 183.424137,19.4032082 C183.186831,20.1145099 183.068486,20.8969323 183.068486,21.7504754 L187.869749,21.7504754 Z M179.974357,31.5841909 C178.71737,29.6992082 178.089422,27.1919194 178.089422,24.0622297 C178.089422,20.8852211 178.729603,18.3601522 180.009917,16.4868806 C181.290232,14.614178 183.151271,13.6772341 185.593603,13.6772341 C187.916973,13.6772341 189.695228,14.614178 190.928318,16.4868806 C192.160887,18.3601522 192.777741,20.8852211 192.777741,24.0622297 C192.777741,24.2522642 192.742133,24.3884366 192.671012,24.4712211 C192.599891,24.5545746 192.564331,24.6079151 192.564331,24.6312427 L183.068486,24.6312427 C183.068486,26.1728073 183.269663,27.5775832 183.673107,28.8457125 C184.075982,30.1143634 184.692219,30.7483806 185.522482,30.7483806 C186.447146,30.7483806 187.134551,30.214928 187.585219,29.1480228 C188.035366,28.0810703 188.272624,27.5241953 188.296521,27.4764496 L192.066439,28.899053 C191.568499,30.6061392 190.773844,31.9520746 189.683564,32.9356263 C188.592715,33.9197944 187.170111,34.4115703 185.415753,34.4115703 C183.04459,34.4115703 181.230822,33.4691263 179.974357,31.5841909 Z M195.409282,34.1626573 L195.409282,28.9345754 L200.388394,28.9345754 L200.388394,33.7358384 L195.409282,34.1626573 Z M212.764859,29.6636716 C213.214958,28.8695853 213.4406,27.524219 213.4406,25.6270509 L213.4406,18.9408526 C212.752626,17.8739 211.946876,17.3404474 211.022165,17.3404474 C210.239743,17.3404474 209.664613,17.6194302 209.297299,18.1762103 C208.929415,18.7336069 208.692678,19.4626888 208.585997,20.363456 C208.479269,21.2647922 208.425928,22.4617534 208.425928,23.9554776 C208.425928,25.4731457 208.479269,26.7062362 208.585997,27.654275 C208.692678,28.6028353 208.935531,29.373594 209.315079,29.9659819 C209.694057,30.5589388 210.26307,30.8551328 211.022165,30.8551328 C211.733467,30.8551328 212.314191,30.4583267 212.764859,29.6636716 M203.41135,23.9554776 C203.41135,20.3278957 203.885346,17.708331 204.833906,16.0956457 C205.781945,14.4835767 207.263958,13.6772578 209.279519,13.6772578 C210.133062,13.6772578 210.951044,13.9561931 211.733467,14.5130207 C212.515889,15.0704172 213.08495,15.7638914 213.4406,16.5935853 L213.4406,7.91572328 L218.455273,7.27558966 L218.455273,33.7358526 L214.685355,34.1626716 L213.4406,31.459706 C213.203294,32.3371931 212.764859,33.0484948 212.124678,33.5936112 C211.484544,34.138775 210.500376,34.411594 209.17279,34.411594 C205.331799,34.411594 203.41135,30.9262534 203.41135,23.9554776" id="Fill-61" fill="#FFFFFF"></path>
    </g>
</svg>