<?xml version="1.0" encoding="UTF-8"?>
<svg width="44px" height="44px" viewBox="0 0 44 44" version="1.1" xmlns="http://www.w3.org/2000/svg" xmlns:xlink="http://www.w3.org/1999/xlink">
    <!-- Generator: Sketch 52.3 (67297) - http://www.bohemiancoding.com/sketch -->
    <title>Logo/NoText/Colors/44</title>
    <desc>Created with Sketch.</desc>
    <defs>
        <linearGradient x1="24.3328356%" y1="104.890076%" x2="75.7559439%" y2="-5.2369727%" id="linearGradient-1">
            <stop stop-color="#1AFFFF" offset="0%"></stop>
            <stop stop-color="#2D3191" offset="100%"></stop>
        </linearGradient>
        <linearGradient x1="50.5790311%" y1="55.4592603%" x2="49.4209237%" y2="44.5407853%" id="linearGradient-2">
            <stop stop-color="#2A51A2" stop-opacity="0" offset="0%"></stop>
            <stop stop-color="#3F3B3D" offset="100%"></stop>
        </linearGradient>
        <linearGradient x1="-5.09142929e-05%" y1="50.0000754%" x2="100.000075%" y2="50.0000754%" id="linearGradient-3">
            <stop stop-color="#2D3191" offset="0%"></stop>
            <stop stop-color="#1AFFFF" offset="100%"></stop>
        </linearGradient>
    </defs>
    <g id="Logo/NoText/Colors/44" stroke="none" stroke-width="1" fill="none" fill-rule="evenodd">
        <path d="M3.4800043,22.2437761 L10.1243476,43.7394575 C10.1817358,43.9252142 10.3789013,44.0292702 10.564608,43.9718192 L42.622035,34.057563 C42.8077417,34.0001119 42.9117697,33.8029408 42.8543341,33.6171367 L36.2100382,12.1215027 L3.4800043,22.2437761 Z" id="Fill-1" fill="url(#linearGradient-1)"></path>
        <polygon id="Fill-4" fill="url(#linearGradient-2)" points="36.6335841 13.4917546 3.90359752 23.6140753 3.52010977 22.373408 36.2500963 12.2510872"></polygon>
        <path d="M32.0560689,0.0444262648 C32.1151617,0.0143035522 32.1781372,0 32.2402131,0 C32.3880872,0 32.5306581,0.0810850377 32.6024407,0.22189451 L33.7734539,2.51984069 C33.8753037,2.71975888 33.7958504,2.96448224 33.595986,3.06640689 L2.7617993,18.7877158 C2.56193489,18.8895931 2.31727737,18.8101184 2.21538015,18.6102002 L1.04441431,16.3123014 C0.942517084,16.1123358 1.02197041,15.8676598 1.22183481,15.7657352 L32.0560689,0.0444262648 Z M35.4158838,8.95875996 C35.4558472,8.94639828 35.4962368,8.9405253 35.5359634,8.9405253 C35.7093118,8.94057266 35.8698757,9.05249085 35.92376,9.22683315 L36.6855744,11.6913068 C36.7517697,11.9056233 36.6318321,12.1330592 36.417526,12.1993197 L3.35263277,22.4252228 C3.13837396,22.491436 2.91104654,22.3714661 2.84475652,22.1571023 L2.08298951,19.6926286 C2.01674684,19.4783122 2.13677912,19.2508762 2.35099058,19.1846157 L35.4158838,8.95875996 Z" id="Fill-10" fill="url(#linearGradient-3)"></path>
        <path d="M29.1396348,5.33766889 L25.4634271,3.40574209 L28.6745156,1.76855371 L32.3506286,3.70048052 L29.1396348,5.33766889 Z M25.0789118,12.1564469 L28.5222521,11.0915427 L27.2325325,15.0399389 L23.7892395,16.1048431 L25.0789118,12.1564469 Z M19.520257,13.8755681 L22.96355,12.8106639 L21.6738776,16.7590127 L18.2305847,17.8239169 L19.520257,13.8755681 Z M14.1447094,15.5380293 L17.5880497,14.4731251 L16.2983774,18.4215212 L12.8550371,19.4864254 L14.1447094,15.5380293 Z M30.6375903,10.4373494 L34.0809306,9.37244521 L32.791211,13.320794 L29.3479653,14.3856982 L30.6375903,10.4373494 Z M23.955921,7.9806859 L20.2797607,6.0487591 L23.4908018,4.41157072 L27.1669622,6.34345016 L23.955921,7.9806859 Z M18.7722025,10.6236792 L15.0960422,8.69175242 L18.3070833,7.05456405 L21.9832437,8.98649085 L18.7722025,10.6236792 Z M13.7592755,13.1796009 L10.0831152,11.2476741 L13.2941564,9.61048568 L16.9703167,11.5423651 L13.7592755,13.1796009 Z" id="Fill-27" fill="#FFFFFF"></path>
        <path d="M10.6430054,17.0435539 L5.12724972,14.2995927 C4.98950853,14.2310588 4.83069658,14.2182235 4.68376949,14.2636443 L1.72051095,15.1800663 C1.40459166,15.2777757 1.22764466,15.6131513 1.32532774,15.9291557 L3.01690697,21.4017326 C3.11459005,21.7176896 3.44987549,21.8946842 3.76579478,21.7969748 L10.9893708,19.5629684 C11.3052901,19.465259 11.4822371,19.1298833 11.384554,18.813879 L10.948413,17.4028952 C10.9000213,17.2463612 10.7896484,17.1165399 10.6430054,17.0435539" id="Fill-29" fill="#29ABE2"></path>
        <path d="M9.30499822,18.2134424 C9.5680749,18.1267686 9.84985483,18.2693778 9.93735765,18.5308202 C10.0236294,18.7927363 9.88110584,19.074592 9.61963906,19.1621184 C9.35788819,19.2484133 9.07487716,19.106183 8.98737433,18.8446932 C8.90067646,18.5815931 9.0432947,18.2997374 9.30499822,18.2134424 Z M3.02245165,16.0023595 C3.28552833,15.9156857 3.56730826,16.0582949 3.65481108,16.3197374 C3.74108281,16.5816534 3.59855927,16.8635091 3.33709249,16.9510355 C3.07534162,17.0373305 2.79233059,16.8951001 2.70482776,16.6336103 C2.61812989,16.3705102 2.76074813,16.0886545 3.02245165,16.0023595 Z M4.19443551,19.7939707 C4.45751219,19.7072969 4.73929212,19.8499061 4.82679494,20.1113485 C4.91306667,20.3732646 4.77054313,20.6551203 4.50907635,20.7426467 C4.24737283,20.8289417 3.9643618,20.6867113 3.87681162,20.4252215 C3.79011375,20.1621214 3.93273199,19.8802657 4.19443551,19.7939707 Z" id="Fill-35" fill="#FFFFFF"></path>
        <polygon id="Fill-37" fill="#FFFFFF" points="16.645917 26.1451126 18.4250464 25.0140426 20.6911234 28.5810265 21.7687623 22.8885442 24.1055328 21.4031535 22.8160973 27.2211944 29.7878659 29.9444581 27.4625068 31.4224129 22.3951083 29.3385938 22.0853919 30.7757219 23.9250346 33.6711966 22.1460472 34.8020771"></polygon>
    </g>
</svg>